<svg xmlns="http://www.w3.org/2000/svg" width="1223" height="684" viewBox="0 0 1223 684">
  <g id="esquema_cadena_de_valor" transform="translate(-141 -2180)">
    <g id="Acción" transform="translate(153 2184)">
      <rect id="Rectángulo_1" data-name="Rectángulo 1" width="84" height="39" rx="19.5" transform="translate(-6 -4)" fill="#009688"/>
      <text id="Inicio" transform="translate(36 21)" fill="#fff" font-size="16" font-family="Poppins-Medium, Poppins" font-weight="500" letter-spacing="0.009em"><tspan x="-21.792" y="0">Inicio</tspan></text>
    </g>
    <g id="Rectángulo_10752" data-name="Rectángulo 10752" transform="translate(312 2259)" fill="none" stroke="#009688" stroke-width="2" stroke-dasharray="8 8">
      <rect width="1052" height="430" rx="4" stroke="none"/>
      <rect x="1" y="1" width="1050" height="428" rx="3" fill="none"/>
    </g>
    <g id="Flecha_recta" data-name="Flecha recta" transform="translate(197 2458) rotate(90)">
      <path id="Trazado_1" data-name="Trazado 1" d="M48,16l8,8-8,8" transform="translate(-24 -16)" fill="none" stroke="rgba(0,0,0,0.6)" stroke-linecap="round" stroke-linejoin="round" stroke-width="2"/>
      <line id="Línea_1" data-name="Línea 1" x2="32" transform="translate(0 8)" fill="none" stroke="rgba(0,0,0,0.6)" stroke-linecap="round" stroke-width="2"/>
    </g>
    <g id="Flecha_recta-2" data-name="Flecha recta" transform="translate(197 2243) rotate(90)">
      <path id="Trazado_1-2" data-name="Trazado 1" d="M48,16l8,8-8,8" transform="translate(-24 -16)" fill="none" stroke="rgba(0,0,0,0.6)" stroke-linecap="round" stroke-linejoin="round" stroke-width="2"/>
      <line id="Línea_1-2" data-name="Línea 1" x2="32" transform="translate(0 8)" fill="none" stroke="rgba(0,0,0,0.6)" stroke-linecap="round" stroke-width="2"/>
    </g>
    <g id="Flecha_recta-3" data-name="Flecha recta" transform="translate(507 2553)">
      <path id="Trazado_1-3" data-name="Trazado 1" d="M48,16l8,8-8,8" transform="translate(67 -16)" fill="none" stroke="rgba(0,0,0,0.6)" stroke-linecap="round" stroke-linejoin="round" stroke-width="2"/>
      <line id="Línea_1-3" data-name="Línea 1" x2="123" transform="translate(0 8)" fill="none" stroke="rgba(0,0,0,0.6)" stroke-linecap="round" stroke-width="2"/>
    </g>
    <g id="Grupo_21656" data-name="Grupo 21656" transform="translate(253 2340)">
      <g id="Flecha_recta-4" data-name="Flecha recta" transform="translate(0 -0.022)">
        <path id="Trazado_1-4" data-name="Trazado 1" d="M56,16l-8,8,8,8" transform="translate(-48 -16)" fill="none" stroke="rgba(0,0,0,0.6)" stroke-linecap="round" stroke-linejoin="round" stroke-width="2"/>
        <line id="Línea_1-4" data-name="Línea 1" x1="377" transform="translate(0 8.022)" fill="none" stroke="rgba(0,0,0,0.6)" stroke-linecap="round" stroke-width="2"/>
      </g>
    </g>
    <g id="Flecha_recta-5" data-name="Flecha recta" transform="translate(758 2553)">
      <path id="Trazado_1-5" data-name="Trazado 1" d="M48,16l8,8-8,8" transform="translate(66 -16)" fill="none" stroke="rgba(0,0,0,0.6)" stroke-linecap="round" stroke-linejoin="round" stroke-width="2"/>
      <line id="Línea_1-5" data-name="Línea 1" x2="122" transform="translate(0 8)" fill="none" stroke="rgba(0,0,0,0.6)" stroke-linecap="round" stroke-width="2"/>
    </g>
    <g id="Flecha_recta-6" data-name="Flecha recta" transform="translate(1046 2553)">
      <path id="Trazado_1-6" data-name="Trazado 1" d="M48,16l8,8-8,8" transform="translate(66 -16)" fill="none" stroke="rgba(0,0,0,0.6)" stroke-linecap="round" stroke-linejoin="round" stroke-width="2"/>
      <line id="Línea_1-6" data-name="Línea 1" x2="122" transform="translate(0 8)" fill="none" stroke="rgba(0,0,0,0.6)" stroke-linecap="round" stroke-width="2"/>
    </g>
    <g id="Flecha_recta-7" data-name="Flecha recta" transform="translate(253 2553)">
      <path id="Trazado_1-7" data-name="Trazado 1" d="M48,16l8,8-8,8" transform="translate(66 -16)" fill="none" stroke="rgba(0,0,0,0.6)" stroke-linecap="round" stroke-linejoin="round" stroke-width="2"/>
      <line id="Línea_1-7" data-name="Línea 1" x2="122" transform="translate(0 8)" fill="none" stroke="rgba(0,0,0,0.6)" stroke-linecap="round" stroke-width="2"/>
    </g>
    <g id="Grupo_21651" data-name="Grupo 21651" transform="translate(-9.333)">
      <path id="Trazado_1-8" data-name="Trazado 1" d="M48,16l8,8-8,8" transform="translate(319.333 2750)" fill="none" stroke="rgba(0,0,0,0.6)" stroke-linecap="round" stroke-linejoin="round" stroke-width="2"/>
      <path id="Trazado_1315" data-name="Trazado 1315" d="M1987.333,2689v101H2164" transform="translate(-1789 -16)" fill="none" stroke="rgba(0,0,0,0.6)" stroke-linecap="round" stroke-width="2"/>
    </g>
    <g id="Grupo_21652" data-name="Grupo 21652" transform="translate(764.667)">
      <path id="Trazado_1-9" data-name="Trazado 1" d="M48,16l8,8-8,8" transform="translate(347.333 2750)" fill="none" stroke="rgba(0,0,0,0.6)" stroke-linecap="round" stroke-linejoin="round" stroke-width="2"/>
      <path id="Trazado_1315-2" data-name="Trazado 1315" d="M1987.333,2689v101H2192" transform="translate(-1789 -16)" fill="none" stroke="rgba(0,0,0,0.6)" stroke-linecap="round" stroke-width="2"/>
    </g>
    <g id="Grupo_21687" data-name="Grupo 21687">
      <path id="Trazado_1-10" data-name="Trazado 1" d="M48,32l8-8-8-8" transform="translate(1112 2324)" fill="none" stroke="rgba(0,0,0,0.6)" stroke-linecap="round" stroke-linejoin="round" stroke-width="2"/>
      <path id="Trazado_1315-3" data-name="Trazado 1315" d="M1987.333,2689H2192" transform="translate(-1024.333 -341)" fill="none" stroke="rgba(0,0,0,0.6)" stroke-linecap="round" stroke-width="2"/>
    </g>
    <g id="Grupo_21688" data-name="Grupo 21688" transform="translate(6)">
      <path id="Trazado_1317" data-name="Trazado 1317" d="M56,32l-8-8,8-8" transform="translate(704 2324)" fill="none" stroke="rgba(0,0,0,0.6)" stroke-linecap="round" stroke-linejoin="round" stroke-width="2"/>
      <path id="Trazado_1316" data-name="Trazado 1316" d="M2192.334,2831V2689h-205" transform="translate(-1235.334 -341)" fill="none" stroke="rgba(0,0,0,0.6)" stroke-linecap="round" stroke-width="2"/>
    </g>
    <g id="Grupo_21661" data-name="Grupo 21661">
      <text id="RAEE" transform="translate(189 2643)" fill="rgba(0,0,0,0.87)" font-size="16" font-family="Poppins-Medium, Poppins" font-weight="500" letter-spacing="0.009em"><tspan x="-19.232" y="0">RAEE</tspan></text>
      <g id="Grupo_21660" data-name="Grupo 21660" transform="translate(-568.333 1925.294)">
        <rect id="Rectángulo_10757" data-name="Rectángulo 10757" width="96" height="96" transform="translate(709.333 588.706)" fill="none"/>
        <g id="Grupo_21659" data-name="Grupo 21659">
          <path id="Trazado_1325" data-name="Trazado 1325" d="M709.425,594.036c.12-.313.237-.628.361-.94a5.882,5.882,0,0,1,5.191-3.962,11.063,11.063,0,0,1,1.122-.043q19.133,0,38.266.014a8.769,8.769,0,0,1,2.664.361,5.926,5.926,0,0,1,4.023,5.727c.026,2.464.013,4.928,0,7.391-.006,1.3-.545,1.878-1.844,1.729a18,18,0,1,0,13.78,25.837,2.363,2.363,0,0,1,2.472-1.5c6.018.048,12.038.022,18.057.022h1.149v-21.1c-1.7-.153-3.365-.314-5.034-.438a.79.79,0,0,0-.609.288c-1.258,1.963-2.489,3.945-3.761,5.977.851.475,1.639.907,2.419,1.352,1.152.659,1.339,1.39.584,2.447q-1.819,2.55-3.683,5.068c-.638.865-1.486,1.057-2.16.536-.7-.542-.732-1.3-.071-2.226.905-1.268,1.821-2.528,2.729-3.794a.826.826,0,0,0,.064-.218c-.753-.417-1.518-.829-2.273-1.26-1.107-.632-1.293-1.31-.626-2.387,1.082-1.749,2.188-3.483,3.281-5.225.16-.256.3-.524.52-.906-2.086-.2-4.057-.392-6.029-.572q-6.61-.6-13.224-1.2l-.093-.011q-2.02-.252-1.863-1.606c.106-.928.823-1.306,2.151-1.184q11.734,1.072,23.469,2.132c1.459.133,2.915.316,4.377.382a5.823,5.823,0,0,0,2.07-.271c1.386-.462,2.725-1.062,4.1-1.574a2.968,2.968,0,0,1,4.229,2.913q.018,12.3,0,24.606a2.971,2.971,0,0,1-4.2,2.963,1.491,1.491,0,0,1-.179-.054,21.824,21.824,0,0,0-10.712-1.869c-4.33.147-8.669.035-13,.035H776.03v1.087c0,2.651.013,5.3-.006,7.952a4.913,4.913,0,0,1-3.217,4.708,22.092,22.092,0,0,1-2.72.984c-.879.223-1.057.693-1.046,1.533.046,3.742.02,7.485.02,11.227,0,3.68-1.14,5.388-4.61,6.835,0,.339.007.708,0,1.078a4.559,4.559,0,0,1-2.682,4.264,1.048,1.048,0,0,0-.687,1.135c.035,1.714,0,3.43.018,5.145a3.859,3.859,0,0,0,3.885,4.053q4.3.105,8.606,0a3.878,3.878,0,0,0,3.931-4.2c.011-5.956-.011-11.913.012-17.87a6.067,6.067,0,0,1,5.586-6.167,1.945,1.945,0,0,1,1.382.328,1.629,1.629,0,0,1,.445,1.374,1.779,1.779,0,0,1-1.153,1.005c-2.6.5-3.46,1.462-3.461,4.1q0,8.467,0,16.935c0,4.505-2.771,7.3-7.268,7.328q-3.742.021-7.485,0c-4.505-.023-7.285-2.814-7.291-7.306,0-1.591,0-3.181,0-4.772a1.546,1.546,0,0,0-1.647-1.391c-1.176.107-2.355.244-3.532.246q-18.1.027-36.208.011c-4.391,0-5.9-1.011-7.473-5.019Zm7.867,2.979v1.141q0,23.156,0,46.31a7.269,7.269,0,0,1-.016.934,1.3,1.3,0,0,1-1.36,1.265,1.317,1.317,0,0,1-1.408-1.222,4.6,4.6,0,0,1-.022-.84V596.234c0-1.691.382-2.072,2.1-2.072q18.664,0,37.329,0c1.7,0,2.079.394,2.081,2.1,0,1.672,0,3.344,0,5.067h2.256c0-1.846,0-3.677,0-5.509,0-2.745-1.175-3.923-3.931-3.923q-19.084,0-38.17,0c-2.762,0-3.919,1.165-3.919,3.922V664.3c0,2.811,1.169,3.991,3.964,3.991h38.858a14.223,14.223,0,0,1-.105-1.749c.037-.6-.181-.841-.743-1.058a5.821,5.821,0,0,1-3.789-4.719c-.091-.514-.174-1.029-.273-1.61H716.711c-.281,0-.563.014-.842-.008a1.3,1.3,0,0,1-1.354-1.285c-.054-2.025-.05-4.054,0-6.079a1.3,1.3,0,0,1,1.461-1.255,1.316,1.316,0,0,1,1.306,1.326c.032.341.01.686.01,1.029,0,1.14,0,2.28,0,3.395h32.36a2.578,2.578,0,0,0,0-.349c-.779-4.923-1.547-9.848-2.369-14.763a1.761,1.761,0,0,0-.789-1.007c-7.311-4.59-10.955-11.194-10.257-19.8.657-8.1,5.03-13.838,12.37-17.268a43.58,43.58,0,0,1,4.528-1.554v-4.486a2.4,2.4,0,0,0-.407-.079c-6.081-.005-12.162-.014-18.243.016a1.257,1.257,0,0,0-.857.538c-.832,1.242-1.607,2.522-2.4,3.79-.588.938-1.173,1.878-1.781,2.851l2.221,1.236c1.408.783,1.571,1.47.641,2.757q-1.91,2.645-3.827,5.283c.753.761,1.454,1.466,2.15,2.175.77.786.837,1.589.191,2.211a1.476,1.476,0,0,1-2.153-.2c-.625-.591-1.233-1.2-1.887-1.838-.446.6-.809,1.11-1.184,1.6-.651.857-1.477,1.061-2.16.543s-.733-1.325-.081-2.226q2.41-3.335,4.838-6.657c.394-.543.786-1.087,1.215-1.679-.747-.417-1.4-.783-2.048-1.142-1.484-.816-1.648-1.41-.766-2.818q1.091-1.745,2.186-3.485c.588-.938,1.176-1.877,1.83-2.919Zm33.027,44.894c.042.405.057.679.1.948q1.379,8.667,2.769,17.333a3.136,3.136,0,0,0,3.4,2.9c1.932.015,3.864,0,5.795,0,2.7,0,3.872-1.17,3.873-3.867q0-8.693,0-17.385v-1.1A21.292,21.292,0,0,1,750.319,641.909Zm52.055-11.05V605.372c-1.564.607-3.043,1.158-4.495,1.772-.188.079-.323.485-.333.746-.039,1-.016,1.994-.016,2.991q0,8.7.011,17.392c0,.307.075.817.254.89C799.281,629.766,800.8,630.288,802.374,630.859Zm-33.309,12.773a28.369,28.369,0,0,0,3.129-1.267,1.919,1.919,0,0,0,.922-1.3c.1-1.9.044-3.812.044-5.687-1.291,1.161-2.561,2.294-3.814,3.445a.864.864,0,0,0-.269.551C769.054,640.736,769.065,642.1,769.065,643.632Zm-11.238,22.3c-.183,1.425.108,2.214.948,2.664a1.85,1.85,0,0,0,2.1-.157,2.139,2.139,0,0,0,.619-2.507Z" fill="#009688"/>
          <path id="Trazado_1326" data-name="Trazado 1326" d="M741.178,622.149a15.739,15.739,0,1,1,15.773,15.722A15.75,15.75,0,0,1,741.178,622.149Zm2.807-.008a12.932,12.932,0,1,0,12.878-12.932A12.889,12.889,0,0,0,743.985,622.141Z" fill="#009688"/>
          <path id="Trazado_1327" data-name="Trazado 1327" d="M735.222,662.31c.872,0,1.745-.018,2.616.006a1.4,1.4,0,1,1,.027,2.785q-2.614.049-5.23,0a1.386,1.386,0,0,1-1.5-1.434c.017-.813.6-1.333,1.568-1.356C733.541,662.294,734.382,662.309,735.222,662.31Z" fill="#009688"/>
          <path id="Trazado_1328" data-name="Trazado 1328" d="M756.866,621.03c-1.776,0-3.551.008-5.326,0-1.032-.007-1.655-.524-1.677-1.35-.022-.854.631-1.442,1.7-1.446q5.325-.021,10.651,0c1.109,0,1.708.532,1.7,1.423s-.581,1.369-1.725,1.375C760.416,621.037,758.641,621.03,756.866,621.03Z" fill="#009688"/>
          <path id="Trazado_1329" data-name="Trazado 1329" d="M756.77,626.05c-1.745,0-3.489.008-5.234,0-1.022-.007-1.652-.534-1.673-1.36-.022-.863.631-1.437,1.7-1.44q5.327-.014,10.654,0c1.094,0,1.709.532,1.7,1.419s-.6,1.377-1.727,1.382C760.384,626.057,758.577,626.05,756.77,626.05Z" fill="#009688"/>
          <path id="Trazado_1330" data-name="Trazado 1330" d="M756.864,631.073c-.839,0-1.679.023-2.517-.006a1.41,1.41,0,0,1-1.5-1.436,1.387,1.387,0,0,1,1.478-1.353q2.562-.036,5.126,0a1.357,1.357,0,0,1,1.488,1.424,1.38,1.38,0,0,1-1.466,1.365C758.6,631.095,757.734,631.072,756.864,631.073Z" fill="#009688"/>
          <path id="Trazado_1331" data-name="Trazado 1331" d="M756.905,616.033c-.838,0-1.677.024-2.514-.005a1.409,1.409,0,0,1-1.543-1.39,1.386,1.386,0,0,1,1.533-1.393q2.513-.047,5.028,0c.985.017,1.525.549,1.527,1.385s-.546,1.364-1.517,1.4C758.582,616.057,757.743,616.033,756.905,616.033Z" fill="#009688"/>
        </g>
      </g>
    </g>
    <g id="Grupo_21669" data-name="Grupo 21669">
      <text id="Recolección" transform="translate(441 2643)" fill="rgba(0,0,0,0.87)" font-size="16" font-family="Poppins-Medium, Poppins" font-weight="500" letter-spacing="0.009em"><tspan x="-49.672" y="0">Recolección</tspan></text>
      <g id="Grupo_21662" data-name="Grupo 21662" transform="translate(-113.667 1925.294)">
        <rect id="Rectángulo_10758" data-name="Rectángulo 10758" width="96" height="96" transform="translate(506.667 588.706)" fill="none"/>
        <g id="Grupo_21662-2" data-name="Grupo 21662">
          <path id="Trazado_1332" data-name="Trazado 1332" d="M520.8,588.8q5.509,3.844,11.021,7.687c2.4,1.672,4.814,3.333,7.311,5.061.533-1.065,1.046-2.087,1.558-3.11.669-1.336,1.333-2.676,2.01-4.008.535-1.051,1.342-1.4,2.177-.954.809.428,1.008,1.248.514,2.255-.768,1.566-1.557,3.121-2.334,4.683-.136.272-.259.551-.455.969.46-.1.785-.161,1.1-.254q15.364-4.518,30.725-9.042c1.854-.546,2.323-.3,2.868,1.522q4.059,13.552,8.119,27.1c.1.325.217.645.32.948a26.475,26.475,0,0,1,3.1.238,5.942,5.942,0,0,1,1.024,11.345,1.228,1.228,0,0,0-.917,1.273q-.843,15.127-1.737,30.252-.531,9.1-1.091,18.2c-.07,1.165-.623,1.637-1.92,1.638q-10.9,0-21.8,0H525.441c-1.759,0-2.136-.367-2.238-2.09q-.988-16.663-1.986-33.328c-.283-4.793-.561-9.586-.8-14.38a1.544,1.544,0,0,0-1.081-1.656,5.831,5.831,0,0,1-3.493-6.462,5.958,5.958,0,0,1,5.751-4.95c1.962-.037,3.924-.007,6.016-.007-.133-.437-.229-.785-.343-1.127q-1.89-5.67-3.783-11.339c-.517-1.552-.2-2.144,1.392-2.614,3.761-1.108,7.523-2.21,11.455-3.365-.368-.27-.626-.469-.893-.654l-15.526-10.75c-1.51-1.045-1.575-1.91-.235-3.09Zm2.528,44.96c.941,16.007,1.875,31.9,2.811,47.823H583.2q1.406-23.9,2.81-47.823Zm31.342-9.03H533.242c-3.836,0-7.672-.015-11.508.008a2.984,2.984,0,0,0-.6,5.91,6.647,6.647,0,0,0,1.3.067q32.23,0,64.46,0a8.313,8.313,0,0,0,.935-.014,2.917,2.917,0,0,0,2.583-2c.739-2.029-.774-3.971-3.1-3.972Q570.991,624.724,554.666,624.73Zm13.258-2.995c-1.784-5.943-3.531-11.764-5.291-17.626-2.544.7-4.975,1.349-7.4,2.041a1.054,1.054,0,0,0-.608.576c-.34.963-.611,1.951-.921,2.975.216.024.365.05.514.056,1.64.065,2.157.743,1.764,2.349q-.644,2.629-1.315,5.252c-.268,1.043-1.038,1.567-1.89,1.326-.875-.248-1.242-1.025-.985-2.1.3-1.253.606-2.5.92-3.795-.242-.019-.364-.034-.486-.038-1.81-.046-2.344-.775-1.829-2.5.289-.966.581-1.931.92-3.059l-18.644,5.084c.1.357.17.624.256.884.854,2.568,1.738,5.127,2.547,7.709a1.061,1.061,0,0,0,1.235.882q15.1-.039,30.2-.018Zm14.672,0-7.976-26.581-47.95,14.1c.118.4.2.724.311,1.045q1.666,5,3.337,10.005c.506,1.517.5,1.518,2.112,1.4a1.077,1.077,0,0,0,.165-.055q-.156-.476-.314-.955-1.368-4.119-2.738-8.239c-.605-1.817-.324-2.349,1.484-2.841q15.672-4.269,31.343-8.54c2.005-.547,2.38-.345,2.969,1.621q2.73,9.121,5.469,18.241c.119.395.143.82.793.814C575.215,621.718,578.829,621.735,582.6,621.735Z" fill="#009688"/>
          <path id="Trazado_1333" data-name="Trazado 1333" d="M535.206,656.116a19.461,19.461,0,1,1,19.409,19.513A19.492,19.492,0,0,1,535.206,656.116Zm35.928.018a16.467,16.467,0,1,0-16.459,16.5A16.492,16.492,0,0,0,571.134,656.134Z" fill="#009688"/>
          <path id="Trazado_1334" data-name="Trazado 1334" d="M575.622,603.746a4.488,4.488,0,1,1-4.465-4.464A4.509,4.509,0,0,1,575.622,603.746Zm-4.456-1.465a1.49,1.49,0,1,0,1.458,1.52A1.506,1.506,0,0,0,571.166,602.281Z" fill="#009688"/>
          <path id="Trazado_1335" data-name="Trazado 1335" d="M578.617,614.285a4.488,4.488,0,1,1-4.406-4.523A4.51,4.51,0,0,1,578.617,614.285Zm-4.561,1.454a1.491,1.491,0,1,0-1.417-1.561A1.515,1.515,0,0,0,574.056,615.739Z" fill="#009688"/>
          <path id="Trazado_1336" data-name="Trazado 1336" d="M557.169,650.1c-.454-.8-.824-1.516-1.257-2.194a1.47,1.47,0,0,0-2.6-.012c-.6.911-1.122,1.868-1.7,2.795-.591.955-1.4,1.231-2.184.773a1.518,1.518,0,0,1-.4-2.27c.579-1,1.152-2,1.782-2.96a4.446,4.446,0,0,1,7.629.084c.61.97,1.158,1.978,1.843,3.154.179-.507.287-.845.417-1.174a1.511,1.511,0,0,1,1.919-1.024,1.489,1.489,0,0,1,.914,1.965q-.677,2.184-1.408,4.349a1.52,1.52,0,0,1-2.181.929q-1.783-.69-3.56-1.4c-1.049-.416-1.492-1.045-1.322-1.858S555.878,650.057,557.169,650.1Z" fill="#009688"/>
          <path id="Trazado_1337" data-name="Trazado 1337" d="M547.078,659.058c-.176.285-.337.511-.463.756a1.5,1.5,0,0,0,1.369,2.336c1.152.028,2.306-.005,3.459.01a1.532,1.532,0,0,1,1.718,1.452c.026.908-.651,1.522-1.73,1.535-1.184.014-2.369.023-3.553,0a4.477,4.477,0,0,1-3.951-6.657c.2-.376.4-.749.686-1.29-.61.164-1.047.3-1.492.4a1.513,1.513,0,0,1-1.857-1,1.448,1.448,0,0,1,1-1.847c1.842-.568,3.7-1.107,5.56-1.6a1.438,1.438,0,0,1,1.921,1.348c.179,1.42.295,2.85.41,4.278a1.561,1.561,0,0,1-1.185,1.849c-.791.168-1.45-.3-1.774-1.264C547.165,659.282,547.133,659.2,547.078,659.058Z" fill="#009688"/>
          <path id="Trazado_1338" data-name="Trazado 1338" d="M559.878,662.145c.793,0,1.438.052,2.072-.011a1.458,1.458,0,0,0,1.2-2.069c-.232-.576-.556-1.113-.807-1.682a1.463,1.463,0,0,1,.672-2.054,1.387,1.387,0,0,1,1.957.706,11.9,11.9,0,0,1,1.247,3.556,4.3,4.3,0,0,1-4.213,4.547c-.65.032-1.3.005-2.082.005.213.309.379.514.505.742a1.4,1.4,0,0,1-.289,1.863,1.272,1.272,0,0,1-1.792.116,44.2,44.2,0,0,1-3.405-3.454c-.544-.625-.265-1.354.3-1.926.9-.909,1.787-1.826,2.7-2.72a1.508,1.508,0,0,1,2.164-.247c.682.567.711,1.36.078,2.236C560.119,661.844,560.047,661.929,559.878,662.145Z" fill="#009688"/>
        </g>
      </g>
    </g>
    <g id="Grupo_21668" data-name="Grupo 21668">
      <text id="Separación" transform="translate(694 2643)" fill="rgba(0,0,0,0.87)" font-size="16" font-family="Poppins-Medium, Poppins" font-weight="500" letter-spacing="0.009em"><tspan x="-46.968" y="0">Separación</tspan></text>
      <g id="Grupo_21664" data-name="Grupo 21664" transform="translate(139.333 2118.707)">
        <rect id="Rectángulo_10759" data-name="Rectángulo 10759" width="96" height="96" transform="translate(506.667 395.294)" fill="none"/>
        <g id="Grupo_21663" data-name="Grupo 21663">
          <path id="Trazado_1339" data-name="Trazado 1339" d="M602.582,403.988c-.835,1.9-2.311,2.475-4.341,2.464-11.32-.064-22.64-.031-33.961-.031h-1.159v16.06c1.443,0,2.87.064,4.29-.018a3.866,3.866,0,0,1,3.643,1.814c1.167,1.655,2.447,3.23,3.663,4.85.654.871.6,1.7-.1,2.215s-1.473.334-2.156-.556c-1.252-1.632-2.471-3.291-3.759-4.894a1.673,1.673,0,0,0-1.136-.579q-12.91-.049-25.821,0a1.542,1.542,0,0,0-1.067.534c-4.236,5.512-8.437,11.051-12.662,16.572a1.094,1.094,0,0,0-.143,1.336q2.623,5.319,5.174,10.676a1.074,1.074,0,0,0,1.126.741c1.486-.039,2.974-.013,4.607-.013-.175-.519-.275-.869-.409-1.205-1.014-2.545-2.011-5.1-3.063-7.626a3.525,3.525,0,0,1,.454-3.765q3.3-4.418,6.518-8.9a3.548,3.548,0,0,1,3.095-1.582q9.309.021,18.618,0a3.482,3.482,0,0,1,3.032,1.52q3.285,4.548,6.627,9.056a3.422,3.422,0,0,1,.416,3.6c-1.04,2.534-2.048,5.082-3.065,7.626-.136.341-.245.693-.448,1.275a14.851,14.851,0,0,1,2.483.021c2.229.4,3.385-.5,4.211-2.6a90.593,90.593,0,0,1,4.045-8.415,1.684,1.684,0,0,0-.245-2.142c-1.428-1.77-2.777-3.605-4.15-5.42-.685-.907-.673-1.668.01-2.225s1.53-.366,2.229.545q2.363,3.078,4.7,6.174a3.079,3.079,0,0,1,.367,3.423q-2.8,5.8-5.622,11.6a3.02,3.02,0,0,1-2.82,1.83c-1.621.022-3.244.055-4.864,0a3.049,3.049,0,0,1-2.813-4.286q1.578-4.1,3.257-8.152a1.372,1.372,0,0,0-.2-1.531q-3.1-4.159-6.133-8.373a1.513,1.513,0,0,0-1.377-.732q-8.982.042-17.963,0a1.436,1.436,0,0,0-1.311.677Q541.3,439.8,538.18,444a1.371,1.371,0,0,0-.165,1.535c1.065,2.591,2.1,5.195,3.135,7.8,1.011,2.543-.374,4.6-3.116,4.628-1.372.014-2.744-.012-4.116.006a3.287,3.287,0,0,1-3.258-2.049q-2.677-5.605-5.419-11.181a3.281,3.281,0,0,1,.344-3.749q6.5-8.507,12.974-17.039a3.465,3.465,0,0,1,3.05-1.479c1.52.042,3.041.01,4.619.01v-16.06h-1.013q-8.7,0-17.4-.009c-.424,0-.984.014-1.239-.23a1.851,1.851,0,0,1-.641-1.38c.108-.454.686-.853,1.144-1.144.247-.157.668-.043,1.011-.043H598.35c1.425,0,1.425,0,1.425-1.438,0-1.029-.029-2.059.01-3.087.027-.7-.266-.974-.941-.9a4.568,4.568,0,0,1-.468,0H510.995c-1.418,0-1.418,0-1.419,1.443,0,1,.041,2-.012,2.993-.044.8.288,1.011,1.042,1,3.274-.03,6.549-.021,9.823-.008,1.289.005,2.081,1.034,1.473,1.984a1.9,1.9,0,0,1-1.339.782q-5.331.093-10.664.017a3.182,3.182,0,0,1-3.115-3.127c-.046-1.589-.041-3.181,0-4.771.041-1.608,1.107-2.473,2.419-3.124h90.947a4.665,4.665,0,0,1,2.433,2.433Zm-53.407,2.482v15.954h11V406.47Z" fill="#009688"/>
          <path id="Trazado_1340" data-name="Trazado 1340" d="M602.582,490.257a2.047,2.047,0,0,1-1.971.95q-45.937-.025-91.875-.014c-.187,0-.375.009-.561-.006a1.411,1.411,0,0,1-1.4-1.45,1.383,1.383,0,0,1,1.408-1.339c1.09-.035,2.183-.011,3.274-.012h1c0-1.47,0-2.835,0-4.2.01-2.222.77-3.229,2.9-3.869,3.071-.922,6.148-1.825,9.206-2.787a3.105,3.105,0,0,0,1.346-.891c1.732-2.006,3.438-4.035,5.095-6.1a3.946,3.946,0,0,1,3.325-1.556q6.6.03,13.192-.013a3.575,3.575,0,0,0,1.662-.445c3.119-1.76,6.245-3.516,9.3-5.391a6.753,6.753,0,0,1,4.87-1c3.784.6,7.6.962,11.393,1.542a5.332,5.332,0,0,1,2.446,1.179c1.434,1.19,2.735,2.541,4.143,3.877l2.584-4.064c-.235-.171-.448-.333-.667-.486a2.194,2.194,0,0,1-.671-3.245c.6-.983,1.215-1.96,1.852-2.921a2.143,2.143,0,0,1,3.222-.724q4.162,2.6,8.29,5.255a2.129,2.129,0,0,1,.706,3.155c-.561.936-1.158,1.849-1.747,2.767-.975,1.522-1.994,1.765-3.536.855-.133-.079-.268-.152-.522-.294l-1.681,2.655c1.265.154,2.368.311,3.475.418,2.423.233,3.546,1.457,3.548,3.92q0,5.615,0,11.227v1.139c1.515,0,2.971.039,4.424-.015a1.984,1.984,0,0,1,1.97.951Zm-9.284-1.9a2.294,2.294,0,0,0,.075-.359c.005-4.054,0-8.108.017-12.161,0-.713-.351-.877-.974-.943-2.788-.3-5.572-.641-8.359-.955a4.353,4.353,0,0,1-2.645-1.247c-1.923-1.868-3.857-3.728-5.842-5.53a3.4,3.4,0,0,0-1.7-.81q-5.69-.816-11.4-1.478a3.4,3.4,0,0,0-1.929.372c-3.4,1.9-6.733,3.914-10.139,5.8a5.873,5.873,0,0,1-2.64.713c-4.333.072-8.669.05-13,.016a2.076,2.076,0,0,0-1.835.832c-1.639,2.042-3.289,4.081-5.04,6.025a5.543,5.543,0,0,1-2.276,1.5c-3.1,1.023-6.254,1.9-9.378,2.859-.346.107-.89.4-.9.63-.079,1.57-.041,3.146-.041,4.739Zm.715-23.723-7.459-4.736-1.366,2.179,7.439,4.71Zm-7.691,1.484-3.045,4.8c1.018.142,1.85.265,2.684.362.081.009.205-.132.267-.23.747-1.168,1.487-2.341,2.255-3.554Z" fill="#009688"/>
          <path id="Trazado_1341" data-name="Trazado 1341" d="M565.147,474.292q2.729,1.731,5.439,3.45c2.034,1.29,2.241,2.181.97,4.19-.5.789-.987,1.587-1.5,2.365a2.172,2.172,0,0,1-3.294.708c-1.979-1.235-3.944-2.493-5.982-3.784-.175.237-.338.448-.491.666a2.177,2.177,0,0,1-3.238.671q-1.473-.9-2.917-1.852a2.147,2.147,0,0,1-.744-3.214q2.6-4.158,5.251-8.281a2.133,2.133,0,0,1,3.225-.694c.878.533,1.738,1.1,2.606,1.644,1.652,1.046,1.884,2.036.88,3.738C565.287,474,565.237,474.117,565.147,474.292Zm-6.964,5.665,4.73-7.46-2.17-1.37-2.361,3.722-2.363,3.729Zm4.048-1.144,5.692,3.61,1.373-2.17-5.681-3.6Z" fill="#009688"/>
          <path id="Trazado_1342" data-name="Trazado 1342" d="M538.684,486.426c-2.449.7-3.73-.54-4.793-2.585-1.637-3.149-1.618-2.592-.018-5.75a4.452,4.452,0,0,1,4.78-2.777c3.6.18,3.114.02,4.994,2.874a4.575,4.575,0,0,1,.037,5.54C542.465,485.783,541.229,487.167,538.684,486.426Zm-.074-2.608c.669-.091,1.475.039,1.765-.288a4.64,4.64,0,0,0,1.417-2.553c0-.866-.8-1.78-1.387-2.576-.178-.242-.8-.223-1.211-.212-.726.021-1.7-.137-2.117.258A4.134,4.134,0,0,0,535.689,481a4.433,4.433,0,0,0,1.359,2.478C537.344,483.811,538.122,483.725,538.61,483.818Z" fill="#009688"/>
          <path id="Trazado_1343" data-name="Trazado 1343" d="M580.828,479.723c3.557-.543,3.557-.543,5.686,2.383.309-.168.625-.35.95-.513a1.39,1.39,0,0,1,1.491,2.346c-2.277,1.714-4.524,1.1-5.315-1.056a.864.864,0,0,0-1.252-.581,5.77,5.77,0,0,1-1.089.257,2.7,2.7,0,0,1-3.224-2.25c-.106-.515-.167-1.039-.265-1.666-.357.084-.673.165-.992.233a1.388,1.388,0,0,1-1.724-.882,1.408,1.408,0,0,1,.848-1.755c2.451-1.115,4.468.027,4.76,2.693C580.729,479.177,580.779,479.419,580.828,479.723Z" fill="#009688"/>
        </g>
      </g>
    </g>
    <g id="Grupo_21667" data-name="Grupo 21667">
      <text id="Desensamblado" transform="translate(963 2643)" fill="rgba(0,0,0,0.87)" font-size="16" font-family="Poppins-Medium, Poppins" font-weight="500" letter-spacing="0.009em"><tspan x="-67.368" y="0">Desensamblado</tspan></text>
      <g id="Grupo_21666" data-name="Grupo 21666" transform="translate(3 1925.294)">
        <rect id="Rectángulo_10760" data-name="Rectángulo 10760" width="96" height="96" transform="translate(912 588.706)" fill="none"/>
        <g id="Grupo_21665" data-name="Grupo 21665">
          <path id="Trazado_1344" data-name="Trazado 1344" d="M1007.907,621.923a3,3,0,0,1-3.225,1.68c-.775-.062-1.559.01-2.338-.019a1.432,1.432,0,0,1-1.541-1.413,1.411,1.411,0,0,1,1.55-1.383c.437-.012.874,0,1.31,0s.866,0,1.368,0V591.655H975.988v29.053h2.939V619.62q0-9.4,0-18.806c0-2.327.958-3.277,3.3-3.28,2.682,0,5.364-.009,8.046,0,2.112.008,3.075.976,3.082,3.093q.015,4.117,0,8.234c-.008,2.091-1.01,3.086-3.1,3.106-.866.008-1.732,0-2.652,0v2.993c4.119-.335,6.1,1.578,5.751,5.823.784,0,1.461-.012,2.138,0a1.415,1.415,0,0,1,1.555,1.378,1.443,1.443,0,0,1-1.538,1.42c-.342.019-.686.005-1.029.005h-1.12v1.185q0,12.678-.005,25.355a7.906,7.906,0,0,1-6.595,8.192,10.516,10.516,0,0,1-1.863.108q-8.233.012-16.467,0h-1.2v1.208q0,10.9,0,21.8c0,2.425-.752,3.168-3.194,3.168h-48.84c-2.3,0-3.1-.787-3.1-3.066q0-11.742,0-23.484c0-8.153,5.875-14.044,14.032-14.049q25.776-.013,51.553,0h1.179V623.592c-.988,0-1.975.007-2.961,0-1.851-.015-2.777-.918-2.778-2.75-.006-9.762.01-19.524-.017-29.285a2.931,2.931,0,0,1,1.681-2.756h31.439l1.684,1.684Zm-60.95,59.858c0-.449,0-.816,0-1.184,0-1.5-.026-2.994.018-4.49a1.39,1.39,0,1,1,2.779.014c.022.373.009.748.009,1.122,0,1.49,0,2.979,0,4.514h14.654v-1.148q0-11.227,0-22.454c0-1.923.6-2.523,2.511-2.524,5.957,0,11.916-.1,17.869.039a5.471,5.471,0,0,0,5.789-5.828c-.13-6.453-.036-12.911-.038-19.367,0-.332-.028-.664-.043-1h-8.774v1.085q0,6.69,0,13.379c0,2.081-.8,2.882-2.884,2.883-5.708,0-11.415.016-17.122-.019a1.494,1.494,0,0,0-1.472.833c-2.665,4.324-5.245,8.709-8.109,12.9-1.786,2.614-2.831,5.264-2.382,8.427a.57.57,0,0,1,0,.093c-.014,1.188-.5,1.844-1.373,1.856-.9.012-1.425-.683-1.432-1.912a34.246,34.246,0,0,1,.032-3.833,6.925,6.925,0,0,1,.813-2.8c2.977-4.9,6.046-9.743,9.083-14.606.171-.275.327-.559.547-.938-1.006,0-1.849.043-2.686-.014a1.22,1.22,0,0,0-1.264.7c-1.823,2.976-3.8,5.866-5.5,8.909-1.365,2.445-3.706,2.419-5.062-.035-1.686-3.051-3.656-5.944-5.521-8.894-.166-.262-.453-.61-.705-.628-1.009-.072-2.025-.029-3.185-.029.249.432.405.724.58,1,3.005,4.81,6,9.626,9.028,14.422a5.181,5.181,0,0,1,.84,2.9c-.028,5.177-.012,10.354-.012,15.531v1.1Zm-23.247-.016v-1.084q0-9.258,0-18.515a4.672,4.672,0,0,1,.03-.933,1.316,1.316,0,0,1,1.434-1.19,1.293,1.293,0,0,1,1.329,1.3c.028.278.012.56.012.841q0,9.258,0,18.515v1.064H941.09c.02-.188.049-.335.049-.483q0-8.183-.009-16.365a1.922,1.922,0,0,0-.28-.958q-5.181-8.329-10.41-16.632a1.248,1.248,0,0,0-.872-.48c-1.12-.057-2.244-.025-3.366-.022-6.676.016-11.3,4.622-11.3,11.277q-.008,11.314,0,22.63v1.039Zm58.083-81.374V609.1h8.685v-8.706Zm8.759,20.349c0-.481.005-.853,0-1.224-.021-1.278-.468-1.72-1.75-1.733-.591-.005-1.182.006-1.773,0a2.007,2.007,0,0,1-2.287-2.292c-.011-1.141,0-2.283,0-3.448h-2.931v8.7ZM945.47,655.059l5.1-8.165h-10.2ZM990.5,623.645H981.8v2.884h8.753c0-.809,0-1.553,0-2.3C990.548,624.053,990.522,623.873,990.5,623.645Z" fill="#009688"/>
          <path id="Trazado_1345" data-name="Trazado 1345" d="M964.306,614.942c0,1.5.028,2.994-.009,4.49a3.8,3.8,0,0,1-2.008,3.469,1.6,1.6,0,0,0-.9,1.694c-.02,6.522-2.812,11.511-8.575,14.585a15.922,15.922,0,0,1-23.288-13.662,5.086,5.086,0,0,1-.005-.654,1.784,1.784,0,0,0-1.037-2.077,3.473,3.473,0,0,1-1.821-3.181c-.034-3.117-.053-6.236,0-9.353a4.184,4.184,0,0,1,3.928-4.04,1.484,1.484,0,0,0,.973-.611,16.045,16.045,0,0,1,7.449-6.7,1.018,1.018,0,0,0,.719-1.025,3.218,3.218,0,0,1,3.451-3.263q2.292-.02,4.584,0A3.227,3.227,0,0,1,951.2,597.9a.926.926,0,0,0,.644.971,16,16,0,0,1,7.527,6.748,1.492,1.492,0,0,0,.984.6,4.265,4.265,0,0,1,3.946,4.331C964.32,612.011,964.306,613.477,964.306,614.942Zm-31.973,8.649c-.2,5.649,1.787,10.078,6.63,12.843a12.4,12.4,0,0,0,14.092-.69c4.138-2.9,5.787-7.06,5.507-12.093H948.545v1.442c-.005,2.994-1.69,4.546-4.671,4.3a1.4,1.4,0,1,1,.074-2.8c1.779-.07,1.792-.084,1.79-1.89,0-.335,0-.67,0-1.112h-1.1c-1.309,0-2.619.03-3.927-.022a1.39,1.39,0,1,1,.056-2.78c.249-.014.5,0,.748,0h17.863c1.735,0,2.119-.392,2.119-2.156q0-3.741,0-7.482c0-1.739-.383-2.113-2.159-2.113H944.284q-6.546,0-13.093,0c-1.2,0-1.727.47-1.734,1.583q-.028,4.3,0,8.6a1.4,1.4,0,0,0,1.576,1.555c1,.026,1.995-.007,2.992.011a1.377,1.377,0,0,1,1.533,1.389,1.426,1.426,0,0,1-1.54,1.408C933.495,623.609,932.97,623.591,932.333,623.591Zm16.08-17.408c0-2.729-.011-5.347.007-7.965.005-.619-.26-.819-.845-.81-1.4.022-2.808.03-4.21,0-.682-.016-.856.308-.851.913.016,1.871.005,3.742.005,5.614v2.25Zm-8.756-4.479a12.821,12.821,0,0,0-5.1,4.476h5.1Zm16.748,4.486a13.2,13.2,0,0,0-5.122-4.488v4.488Z" fill="#009688"/>
          <path id="Trazado_1346" data-name="Trazado 1346" d="M980.81,678.8c-1.84,0-3.68.012-5.52,0-1.859-.016-2.685-1.44-1.76-3.06q2.781-4.869,5.6-9.714c.936-1.607,2.59-1.609,3.527,0q2.824,4.844,5.607,9.712c.929,1.627.108,3.05-1.752,3.065C984.614,678.817,982.712,678.8,980.81,678.8Zm4.353-2.846-4.262-7.378-4.255,7.378Z" fill="#009688"/>
          <path id="Trazado_1347" data-name="Trazado 1347" d="M1004.984,671.6a7.212,7.212,0,1,1-7.162-7.214A7.224,7.224,0,0,1,1004.984,671.6Zm-7.2-4.407a4.4,4.4,0,1,0,4.4,4.39A4.367,4.367,0,0,0,997.78,667.192Z" fill="#009688"/>
          <path id="Trazado_1348" data-name="Trazado 1348" d="M945.4,614.842c-.9,0-1.806.019-2.709,0a1.4,1.4,0,1,1-.058-2.786c1.9-.032,3.8-.035,5.7,0a1.391,1.391,0,1,1-.035,2.78C947.333,614.863,946.367,614.841,945.4,614.842Z" fill="#009688"/>
        </g>
      </g>
    </g>
    <g id="Grupo_21689" data-name="Grupo 21689">
      <text id="Exportación" transform="translate(1232 2643)" fill="rgba(0,0,0,0.87)" font-size="16" font-family="Poppins-Medium, Poppins" font-weight="500" letter-spacing="0.009em"><tspan x="-48.112" y="0">Exportación</tspan></text>
      <g id="Grupo_21671" data-name="Grupo 21671" transform="translate(474.667 2118.706)">
        <rect id="Rectángulo_10761" data-name="Rectángulo 10761" width="96" height="96" transform="translate(709.333 395.294)" fill="none"/>
        <g id="Grupo_21670" data-name="Grupo 21670">
          <path id="Trazado_1349" data-name="Trazado 1349" d="M761.97,442.055a46.352,46.352,0,0,1,23.807,9.491V435.875h-7.433l8.994-12.011h-6.322c-.4,0-.811.012-1.216-.006a2.954,2.954,0,0,1-2.923-2.936q-.035-10.524,0-21.049a2.919,2.919,0,0,1,3-2.948q10.479-.027,20.957,0A2.918,2.918,0,0,1,803.8,399.9q.031,10.479,0,20.957a2.946,2.946,0,0,1-3.052,2.995c-2.4.023-4.8.006-7.412.006l8.938,11.93H794.83v1.145c0,7.578.012,15.156-.016,22.734a3.524,3.524,0,0,0,.671,2.15,46.022,46.022,0,0,1,8.326,27.344c0,.151-.018.3-.03.51H710.849c.2-2.665.279-5.308.63-7.915a45.457,45.457,0,0,1,8.165-20.446,1.732,1.732,0,0,0,.318-.934q.023-12.116.005-24.231a1.876,1.876,0,0,0-.063-.28h-7.43l8.994-12.006h-6.7c-2.744,0-3.77-1.032-3.77-3.79q0-9.824,0-19.646c0-2.353,1.149-3.51,3.485-3.511q10.009,0,20.021,0,3.435,0,3.44,3.462,0,10.011,0,20.021c0,2.3-1.154,3.46-3.441,3.463s-4.547,0-7.032,0l8.941,11.933h-7.374v15.747a46.459,46.459,0,0,1,23.819-9.49v-6.182h-7.446l9-12.008h-6.7c-2.747,0-3.773-1.031-3.773-3.786q0-9.824,0-19.647c0-2.356,1.146-3.513,3.481-3.514q10.011,0,20.021,0,3.439,0,3.444,3.459,0,10.011,0,20.021c0,2.3-1.154,3.462-3.438,3.466s-4.548,0-7.035,0l8.939,11.931H761.97Zm-26.816,8.924c1.074.646,1.991,1.218,2.927,1.758a6.216,6.216,0,0,1,3.183,4.7c.274,1.849.556,3.7.777,5.553a3.457,3.457,0,0,0,1.868,2.831c.793.432,1.52.992,2.329,1.384a7.468,7.468,0,0,1,4.46,6.032,5.871,5.871,0,0,0,2.1,3.815c1.172,1.005,1.818.925,2.454-.5a5.935,5.935,0,0,1,4.827-3.668c1.356-.2,2.714-.384,4.071-.58a3.263,3.263,0,0,0,3.146-2.829c.513-2.054,1.035-4.106,1.526-6.165a6.324,6.324,0,0,1,3.545-4.437c1.651-.8,3.321-1.582,4.917-2.486a4.7,4.7,0,0,0,1.716-1.62,26.389,26.389,0,0,0,1.391-3.321,42.854,42.854,0,0,0-18.518-6.375v11.682h-2.91V432.79h4.388l-5.95-7.923-6,8.015h4.442v23.84h-2.958V445.079A43.055,43.055,0,0,0,735.154,450.979Zm47.784,2.186c-.28.69-.544,1.255-.742,1.842a6.913,6.913,0,0,1-3.918,4.269c-1.56.7-3.06,1.537-4.6,2.284a3.356,3.356,0,0,0-1.916,2.377c-.526,2.211-1.065,4.42-1.66,6.613a5.911,5.911,0,0,1-5.062,4.616c-1.229.2-2.46.422-3.7.528a3.883,3.883,0,0,0-3.608,2.608,4.049,4.049,0,0,1-6.419,1.445c-1.751-1.474-3.205-3.138-3.466-5.555a14.721,14.721,0,0,0-.353-1.451,3.369,3.369,0,0,0-1.726-2.318c-1.242-.714-2.463-1.465-3.685-2.214a5.825,5.825,0,0,1-2.879-4.167q-.484-3-.88-6.009a3.434,3.434,0,0,0-1.75-2.711c-1.213-.7-2.428-1.4-3.6-2.173a.879.879,0,0,0-1.226.1c-.717.6-1.507,1.118-2.179,1.762a1.949,1.949,0,0,0-.584,1.231c-.043,4.241-.032,8.482-.023,12.723a3.686,3.686,0,0,0,3.056,3.906c1.538.394,3.084.757,4.622,1.152a6.462,6.462,0,0,1,4.916,4.643,4.014,4.014,0,0,0,3.03,2.977,6.367,6.367,0,0,1,4.633,4.34.985.985,0,0,0,1.137.775c5.706-.025,11.413-.015,17.119-.015h1.3c-.2-.65-.377-1.208-.545-1.769a7.144,7.144,0,0,1,6.194-9.281c1.488-.151,2.969-.381,4.459-.5a4.466,4.466,0,0,0,4.047-3.088,11.527,11.527,0,0,1,1.652-2.9c1.427-1.768,3.468-2.3,5.646-2.5,1.468-.131,2.928-.361,4.505-.561A43.816,43.816,0,0,0,782.938,453.165ZM746.226,486.7a3.337,3.337,0,0,0-2.559-2.214,6.551,6.551,0,0,1-4.873-4.694,3.951,3.951,0,0,0-3.157-2.95c-1.486-.344-2.962-.724-4.437-1.109a6.587,6.587,0,0,1-5.233-6.72c-.01-3.179,0-6.358,0-9.537,0-.293-.028-.586-.054-1.085a43.651,43.651,0,0,0-11.9,28.309Zm-11.344-65.867V399.986h-5.959v5.851h-8.989v-5.878h-5.892v20.873Zm32.934,0V399.988h-5.962v5.847h-8.988v-5.874H746.98v20.874Zm12.108-20.882V420.8h20.819V399.963h-5.936v5.864h-8.989v-5.874ZM800.8,486.741a43.164,43.164,0,0,0-4.53-17.769c-2.417.312-4.734.591-7.045.915a3.97,3.97,0,0,0-3.14,2.372c-.217.447-.379.92-.576,1.377a7.083,7.083,0,0,1-6.137,4.511c-1.64.178-3.283.343-4.918.563a4.108,4.108,0,0,0-3.436,5.066c.17.694.465,1.357.617,2.053.163.75.552.934,1.3.931,8.943-.03,17.886-.019,26.829-.019Zm-77.82-29.726c.855-.818,1.677-1.524,2.391-2.325a2.264,2.264,0,0,0,.571-1.354c.036-6.485.025-12.97.025-19.455v-1.058h4.471l-5.966-7.955-5.988,7.983h4.5Zm65.864-24.2v1.151q0,9.681.007,19.362a1.583,1.583,0,0,0,.185.961c.847.937,1.763,1.811,2.824,2.879V432.821h4.448c-2.03-2.706-3.961-5.28-5.965-7.953l-5.964,7.952ZM723.03,399.929v2.907h2.858v-2.907Zm35.831.029h-2.9v2.883h2.9Zm30.046-.005v2.879h2.881v-2.879Z" fill="#009688"/>
        </g>
      </g>
    </g>
    <g id="Grupo_21675" data-name="Grupo 21675">
      <text id="Disposición_final" data-name="Disposición final" transform="translate(1232 2858)" fill="rgba(0,0,0,0.87)" font-size="16" font-family="Poppins-Medium, Poppins" font-weight="500" letter-spacing="0.009em"><tspan x="-66.904" y="0">Disposición final</tspan></text>
      <g id="Grupo_21674" data-name="Grupo 21674" transform="translate(69.333 2333.707)">
        <rect id="Rectángulo_10762" data-name="Rectángulo 10762" width="96" height="96" transform="translate(1114.667 395.294)" fill="none"/>
        <g id="Grupo_21673" data-name="Grupo 21673">
          <g id="Grupo_21672" data-name="Grupo 21672">
            <path id="Trazado_1350" data-name="Trazado 1350" d="M1117.682,407.893c.091,0,.182,0,.272,0l.4,0h88.586l.494,0c.155,0,.311,0,.466-.013a1.463,1.463,0,1,0,.012-2.926c-.1-.007-.209-.01-.314-.01l-.365,0h-10.145v-2.5q0-2.174-.007-4.346a1.41,1.41,0,0,0-1.417-1.546h-.056a1.42,1.42,0,0,0-1.443,1.459,5.927,5.927,0,0,0-.014.65c0,.075,0,.15,0,.225v5.985h-3.766v-1.625c0-1.713,0-3.33.006-4.982a1.8,1.8,0,0,0-.434-1.329,1.538,1.538,0,0,0-2.023,0,1.808,1.808,0,0,0-.434,1.336c.008.848.006,1.7,0,2.543l0,1.1v2.965h-20.022v-1.051c0-1.113,0-2.206,0-3.3,0-.227,0-.454,0-.681,0-.609.009-1.239-.023-1.862a1.451,1.451,0,1,0-2.9.037c-.013.235-.011.469-.009.7,0,.087,0,.174,0,.261v5.9h-3.761V400.8c0-.9,0-1.8-.006-2.7a1.407,1.407,0,0,0-1.424-1.537h-.047a1.417,1.417,0,0,0-1.441,1.471c-.022.265-.018.526-.015.779,0,.094,0,.187,0,.28v5.81h-20.022v-2.33q0-2.217-.005-4.435a1.4,1.4,0,0,0-1.429-1.573h-.066a1.4,1.4,0,0,0-1.384,1.567c0,.514,0,1.028,0,1.543l0,.794v4.419h-3.765v-1.613c0-1.646,0-3.27,0-4.893,0-1.131-.477-1.744-1.427-1.825q-.065-.006-.126-.006c-.825,0-1.367.7-1.382,1.788-.007.5-.006,1,0,1.5l0,.655v4.454l-6.1,0q-2.231,0-4.47-.005c-1.318,0-1.676.757-1.745,1.391a1.241,1.241,0,0,0,.3.974A1.976,1.976,0,0,0,1117.682,407.893Z" fill="#009688"/>
            <path id="Trazado_1351" data-name="Trazado 1351" d="M1207.648,478.694c-.1,0-.206,0-.309,0l-.451,0H1118.4c-.088,0-.176,0-.263,0l-.276,0a4.739,4.739,0,0,0-.529.025,1.456,1.456,0,0,0-.015,2.908,3.385,3.385,0,0,0,.388.019l.208,0,.2,0h10.145v2.425q0,2.208.007,4.417a1.409,1.409,0,0,0,1.417,1.546h.057a1.421,1.421,0,0,0,1.443-1.459,6.487,6.487,0,0,0,.014-.65q0-.113,0-.225V481.7h3.766v1.624c0,1.713,0,3.331-.006,4.984a1.8,1.8,0,0,0,.434,1.328,1.539,1.539,0,0,0,2.023,0,1.808,1.808,0,0,0,.434-1.337c-.008-.836-.006-1.673,0-2.51,0-.378,0-.757,0-1.135v-2.965h20.022v1.137c0,1.083,0,2.148,0,3.213q0,.339,0,.68c0,.61-.008,1.24.023,1.863a1.451,1.451,0,1,0,2.9-.037c.014-.234.011-.467.009-.693,0-.087,0-.175,0-.263v-5.9h3.761v4.1c0,.9,0,1.794.006,2.69a1.406,1.406,0,0,0,1.423,1.537h.047a1.417,1.417,0,0,0,1.441-1.472c.022-.263.019-.524.015-.776,0-.094,0-.188,0-.283v-5.81H1187.5v2.4q0,2.183,0,4.363a1.4,1.4,0,0,0,1.428,1.573H1189a1.4,1.4,0,0,0,1.384-1.567c0-.51,0-1.02,0-1.53l0-.806V481.7h3.765v1.569c0,1.661,0,3.3,0,4.938,0,1.13.476,1.744,1.426,1.824.043,0,.085.006.127.006.824,0,1.367-.7,1.382-1.788.006-.5.005-1,0-1.5v-5.107h6.107q2.229,0,4.467,0c1.318,0,1.677-.757,1.745-1.391a1.24,1.24,0,0,0-.295-.973A1.981,1.981,0,0,0,1207.648,478.694Z" fill="#009688"/>
            <path id="Trazado_1352" data-name="Trazado 1352" d="M1207.91,441.493a1.5,1.5,0,0,0,.143-3,1.478,1.478,0,0,0-.315-.03c-.093,0-.188,0-.285.01-.078.005-.153.01-.228.01l-5.5,0-4.6,0v-23.86h10.79a1.5,1.5,0,0,0,1.5-1.5.65.65,0,0,0-.005-.1l0-.053a1.193,1.193,0,0,0-.305-.772.124.124,0,0,0-.027-.025l0-.005a1.209,1.209,0,0,0-.1-.108,1.5,1.5,0,0,0-1.063-.44h-90.485a1.5,1.5,0,1,0,0,3.008h10.93v23.86l-4.872,0q-2.73,0-5.465,0c-.063,0-.13,0-.2,0s-.16-.007-.24-.007a1.725,1.725,0,0,0-.27.017,1.5,1.5,0,0,0,.115,3h10.935v3.657h-10.607a1.8,1.8,0,0,0-.19-.01,1.147,1.147,0,0,0-.16.01,1.5,1.5,0,0,0,.022,3.008h10.95v23.837h-10.95a1.5,1.5,0,0,0-1.1.48c-.006.006-.014.009-.02.015s-.02.028-.031.041-.029.037-.043.055a1.222,1.222,0,0,0-.129.2,1.3,1.3,0,0,0-.067.141c-.006.017-.013.033-.018.051a1.474,1.474,0,0,0-.1.525,1.5,1.5,0,0,0,1.505,1.505h90.485a1.5,1.5,0,0,0,1.5-1.505.649.649,0,0,0-.005-.1l0-.053a1.478,1.478,0,0,0-.332-.8l0-.005a1.209,1.209,0,0,0-.1-.108,1.5,1.5,0,0,0-1.063-.44h-10.767V448.158h10.767a1.485,1.485,0,0,0,1.36-.888.509.509,0,0,0,.033-.07c.007-.02.015-.04.022-.057s.015-.035.02-.053v-.005a1.313,1.313,0,0,0,.05-.207,1.28,1.28,0,0,0,.018-.223c0-.042,0-.087-.005-.13a1.252,1.252,0,0,0-.31-.79,1.4,1.4,0,0,0-.125-.142,1.491,1.491,0,0,0-1.063-.443h-10.762v-3.657Zm-40.43-26.87h19.935V438.48l-3.62,0c-1.715,0-3.742,0-5.767-.025a.678.678,0,0,1-.37-.278,15.919,15.919,0,0,0-9.85-9.867.747.747,0,0,1-.3-.275c-.025-3.838-.025-7.763-.025-11.558Zm19.938,26.87v3.627h-8.978v-3.627Zm-11.838,1.827a12.84,12.84,0,0,1-.135,1.83,12.673,12.673,0,0,1-.817,3.008,12.915,12.915,0,0,1-24.745-3.008,12.679,12.679,0,0,1-.133-1.84,13.358,13.358,0,0,1,.125-1.817,12.923,12.923,0,0,1,12.805-11.115h.035a12.907,12.907,0,0,1,12.865,12.942Zm-14.737-28.7h3.65v12.9h-3.65Zm-22.948,0h19.933c.012.19.025.37.025.545q0,1.8,0,3.612c0,2.893-.005,5.885.02,8.828,0,.49-.1.63-.618.825a15.615,15.615,0,0,0-9.472,9.5c-.143.385-.253.518-.518.555a1.353,1.353,0,0,1-.212.013h-.03l-1.133-.013c-.86-.007-1.8-.01-2.9-.01l-2.288,0c-.762,0-1.522.005-2.285.005h-.52Zm-2.987,57.347h-3.528V414.623h3.528Zm2.972-30.477h9.01v3.625h-9.01Zm19.965,28.755,0,1.732H1137.9V448.158h9.57c.122.065.2.2.3.45a15.868,15.868,0,0,0,9.6,9.627.978.978,0,0,1,.453.423C1157.858,462.52,1157.85,466.448,1157.845,470.248Zm6.648,1.73h-3.675v-12.91h3.675Zm22.93-.018h-19.948l0-4.97c0-2.645,0-5.38-.013-8.07,0-.435.053-.567.485-.725a15.8,15.8,0,0,0,9.643-9.582,1.255,1.255,0,0,1,.322-.455h9.508Zm6.647.013h-3.645v-57.35h3.645Z" fill="#009688"/>
          </g>
          <path id="Trazado_1353" data-name="Trazado 1353" d="M1162.649,450.932c-.716,0-1.432.015-2.148,0-1.1-.027-1.5-.52-1.34-1.621.153-1.047.3-2.093.477-3.136a1.324,1.324,0,0,0-.481-1.369,5.148,5.148,0,0,1-.318-7.49,5.3,5.3,0,0,1,7.608-.046,5.144,5.144,0,0,1-.232,7.492,1.472,1.472,0,0,0-.5,1.538c.175,1.01.317,2.027.462,3.043.154,1.083-.262,1.566-1.377,1.59C1164.081,450.945,1163.365,450.932,1162.649,450.932Zm1.207-2.243c-.161-1.178-.281-2.26-.463-3.331a1.527,1.527,0,0,1,.816-1.78,2.908,2.908,0,0,0,1.542-2.968,3.1,3.1,0,0,0-2.664-2.73,3.151,3.151,0,0,0-3.344,2,2.9,2.9,0,0,0,1.225,3.582,1.821,1.821,0,0,1,.946,2.172c-.187.993-.291,2-.438,3.056Z" fill="#009688"/>
        </g>
      </g>
    </g>
    <g id="Grupo_21681" data-name="Grupo 21681">
      <text id="Recuperación_de_materiales" data-name="Recuperación
de materiales" transform="translate(1232 2428)" fill="rgba(0,0,0,0.87)" font-size="16" font-family="Poppins-Medium, Poppins" font-weight="500" letter-spacing="0.009em"><tspan x="-56.84" y="0">Recuperación</tspan><tspan x="-56.88" y="24">de materiales</tspan></text>
      <g id="Grupo_21677" data-name="Grupo 21677" transform="translate(-133.333 1710.294)">
        <rect id="Rectángulo_10763" data-name="Rectángulo 10763" width="96" height="96" transform="translate(1317.333 588.706)" fill="none"/>
        <g id="Grupo_21676" data-name="Grupo 21676">
          <path id="Trazado_1354" data-name="Trazado 1354" d="M1369.531,670.162q-2.106-.009-4.21-.009t-4.211.009a1.476,1.476,0,0,1-1.657-1.428c-.19-1.442-.453-3.34-.791-5.228a1.12,1.12,0,0,0-.564-.688c-1.607-.666-3.233-1.3-4.955-1.97q-.8-.311-1.629-.636l-1.066.8c-.963.724-2.011,1.512-3.061,2.3a2.6,2.6,0,0,1-1.4.7c-.443,0-.818-.3-1.4-.882q-.847-.855-1.691-1.714c-1.263-1.283-2.569-2.61-3.878-3.888a1.648,1.648,0,0,1-.2-2.513c1.052-1.341,2.062-2.72,3-4.1a1.261,1.261,0,0,0,.067-.978c-.353-.924-.736-1.857-1.107-2.758-.416-1.014-.847-2.063-1.239-3.108a.907.907,0,0,0-.867-.686c-.968-.13-1.936-.268-2.9-.406q-.966-.138-1.932-.274c-1.328-.185-1.673-.568-1.679-1.862,0-1.095,0-2.191,0-3.287,0-1.615.005-3.285-.013-4.926a1.614,1.614,0,0,1,1.574-1.867c.773-.095,1.557-.213,2.315-.327.858-.129,1.746-.262,2.624-.364.489-.057.689-.231.894-.775.732-1.942,1.512-3.847,2.318-5.663.231-.519.256-.775-.059-1.178-.555-.711-1.095-1.452-1.617-2.168-.462-.633-.939-1.288-1.425-1.918a1.552,1.552,0,0,1,.169-2.346c1.918-1.9,3.885-3.884,5.846-5.911a1.727,1.727,0,0,1,1.228-.633,1.829,1.829,0,0,1,1.115.459c1.514,1.182,2.874,2.2,4.158,3.1a1.07,1.07,0,0,0,.568.145.863.863,0,0,0,.308-.049c2.131-.837,4.064-1.646,5.91-2.473a1.268,1.268,0,0,0,.6-.789c.271-1.491.517-3.12.773-5.124a1.5,1.5,0,0,1,1.68-1.5h.022q2.039.013,4.078.013,2.171,0,4.341-.01a1.474,1.474,0,0,1,1.65,1.434c.248,1.888.506,3.6.788,5.23a1.013,1.013,0,0,0,.461.654c1.675.7,3.35,1.353,5.123,2.049q.768.3,1.556.611c.361-.27.737-.548,1.122-.833,1.06-.785,2.157-1.6,3.246-2.451a1.89,1.89,0,0,1,1.15-.478,1.783,1.783,0,0,1,1.275.665c1.912,1.98,3.855,3.943,5.776,5.833a1.6,1.6,0,0,1,.155,2.435c-.475.613-.939,1.252-1.389,1.87-.492.677-1,1.378-1.529,2.049a1.075,1.075,0,0,0-.132,1.352c.758,1.639,1.483,3.41,2.283,5.572a1.018,1.018,0,0,0,.98.821c.9.1,1.82.237,2.7.368.7.1,1.421.208,2.132.3a1.621,1.621,0,0,1,1.613,1.843c-.031,2.539-.032,5.259,0,8.314a1.57,1.57,0,0,1-1.555,1.782c-.7.09-1.4.192-2.089.29-.934.135-1.9.274-2.854.384a.938.938,0,0,0-.91.757c-.778,2.075-1.551,3.959-2.364,5.759a.872.872,0,0,0,.1,1.085c.5.657,1,1.334,1.478,1.99.506.692,1.029,1.407,1.56,2.1a1.571,1.571,0,0,1-.152,2.351c-1.88,1.861-3.847,3.85-5.847,5.911a1.744,1.744,0,0,1-1.236.638,1.8,1.8,0,0,1-1.107-.457c-.71-.559-1.449-1.108-2.163-1.64-.652-.485-1.326-.987-1.979-1.5a.779.779,0,0,0-.479-.2,1.274,1.274,0,0,0-.508.145c-2.008.9-3.886,1.689-5.742,2.4a.949.949,0,0,0-.731.931c-.116.958-.265,1.927-.409,2.864-.115.746-.233,1.518-.334,2.278a1.472,1.472,0,0,1-1.66,1.406Zm-4.193-2.634c.961,0,1.912.008,2.826.023h.043c.485,0,.626-.128.682-.623.089-.791.207-1.589.32-2.361.11-.744.223-1.514.311-2.271a2.065,2.065,0,0,1,1.607-1.883c2.207-.8,4.48-1.753,6.755-2.823a2.744,2.744,0,0,1,1.169-.321,1.89,1.89,0,0,1,1.2.471c1.023.808,2.061,1.58,3.065,2.326q.531.395,1.038.774l5.018-4.851q-.425-.579-.848-1.161c-.748-1.026-1.521-2.088-2.311-3.108a2.031,2.031,0,0,1-.152-2.381,57.618,57.618,0,0,0,2.716-6.569,2.307,2.307,0,0,1,2.215-1.894c1.171-.119,2.36-.3,3.51-.471.448-.067.9-.135,1.345-.2v-7q-.727-.107-1.444-.215c-1.3-.2-2.526-.38-3.781-.53a2,2,0,0,1-1.779-1.585c-.9-2.475-1.8-4.693-2.766-6.781a2.083,2.083,0,0,1,.171-2.469c.793-1.018,1.561-2.074,2.3-3.1q.413-.568.823-1.128l-5-4.864q-.528.4-1.072.8c-.993.736-2.019,1.5-3.015,2.29a1.94,1.94,0,0,1-1.238.487,2.9,2.9,0,0,1-1.227-.339c-2.082-.979-4.357-1.923-6.76-2.806a2.027,2.027,0,0,1-1.542-1.826c-.089-.748-.2-1.506-.309-2.241-.115-.782-.234-1.591-.326-2.391-.06-.513-.2-.646-.664-.646h-.04c-.97.017-1.94.026-2.884.026s-1.911-.009-2.842-.027h-.038c-.457,0-.584.13-.647.665-.093.8-.212,1.616-.327,2.4-.107.731-.218,1.486-.307,2.23a2.031,2.031,0,0,1-1.54,1.827c-2.345.861-4.619,1.807-6.76,2.81a2.876,2.876,0,0,1-1.228.34,1.928,1.928,0,0,1-1.233-.487c-1.018-.814-2.048-1.575-3.043-2.311-.338-.25-.667-.494-.982-.729l-5.025,4.864q.41.557.819,1.12c.733,1.006,1.491,2.046,2.269,3.048a2.094,2.094,0,0,1,.166,2.472,58.224,58.224,0,0,0-2.709,6.571,2.266,2.266,0,0,1-2.139,1.848c-1.2.136-2.409.324-3.579.505-.443.069-.886.137-1.326.2v6.974c.493.075.981.153,1.464.229,1.3.206,2.531.4,3.787.552a1.928,1.928,0,0,1,1.72,1.509c.955,2.584,1.872,4.834,2.8,6.881a2.029,2.029,0,0,1-.15,2.379c-.793,1.025-1.566,2.087-2.314,3.114q-.419.574-.836,1.144l4.985,4.877q.512-.383,1.047-.779c1.007-.747,2.049-1.52,3.071-2.327a1.912,1.912,0,0,1,1.214-.472,2.743,2.743,0,0,1,1.164.313c2.4,1.117,4.61,2.038,6.755,2.818a2.07,2.07,0,0,1,1.606,1.888c.092.781.209,1.573.322,2.34.11.749.224,1.524.315,2.29.055.461.183.581.626.581h.031C1363.429,667.535,1364.405,667.528,1365.338,667.528Z" fill="#009688"/>
          <path id="Trazado_1355" data-name="Trazado 1355" d="M1365.323,597.952a4.522,4.522,0,0,1-3.244-1.36,4.659,4.659,0,0,1-1.336-3.37,4.608,4.608,0,0,1,4.582-4.516h.035a4.553,4.553,0,0,1,3.245,1.383,4.628,4.628,0,0,1-3.245,7.863Zm0-6.624a2.031,2.031,0,0,0-2.02,1.967,1.968,1.968,0,0,0,.573,1.426,2.035,2.035,0,0,0,3.493-1.356,1.953,1.953,0,0,0-.568-1.42,2.039,2.039,0,0,0-1.467-.617v-.2Z" fill="#009688"/>
          <path id="Trazado_1356" data-name="Trazado 1356" d="M1365.3,684.706a4.623,4.623,0,0,1,.011-9.245h.035a4.528,4.528,0,0,1,3.239,1.356,4.63,4.63,0,0,1-3.242,7.889Zm.035-6.631a2.033,2.033,0,0,0-1.464.619,1.963,1.963,0,0,0-.57,1.424,2.035,2.035,0,0,0,2.023,1.967h0a2.04,2.04,0,0,0,1.475-.618,1.96,1.96,0,0,0,.568-1.423,2.037,2.037,0,0,0-2.024-1.969l-.008-.2Z" fill="#009688"/>
          <path id="Trazado_1357" data-name="Trazado 1357" d="M1322.1,641.3a4.6,4.6,0,0,1-3.283-7.815,4.56,4.56,0,0,1,3.247-1.366h.033a4.591,4.591,0,1,1,.011,9.181Zm.005-6.626a2.058,2.058,0,0,0-2,1.955,2.031,2.031,0,0,0,.563,1.481,1.986,1.986,0,0,0,1.416.631h.031a2.084,2.084,0,0,0,2.026-1.955,2.016,2.016,0,0,0-.56-1.449,2.053,2.053,0,0,0-1.435-.663Z" fill="#009688"/>
          <path id="Trazado_1358" data-name="Trazado 1358" d="M1408.53,641.3a4.672,4.672,0,1,1,.014,0Zm.013-6.623a2.084,2.084,0,0,0-2.023,2.021,2.07,2.07,0,0,0,2.023,2.043h.038a2.033,2.033,0,0,0,.023-4.063Z" fill="#009688"/>
          <path id="Trazado_1359" data-name="Trazado 1359" d="M1365.328,656.575a19.669,19.669,0,0,1-19.145-17.8c-.831-9.651,4.757-18.271,13.589-20.963a18.853,18.853,0,0,1,5.506-.824,19.347,19.347,0,0,1,18.961,15.884c1.887,10.587-4.331,20.478-14.464,23.008a26.189,26.189,0,0,1-3.019.5c-.459.058-.933.118-1.4.188l-.016,0Zm-.019-37a17.14,17.14,0,0,0,0,34.265h.037a17.14,17.14,0,0,0,.063-34.264Z" fill="#009688"/>
          <path id="Trazado_1360" data-name="Trazado 1360" d="M1361.54,646.509a3.02,3.02,0,0,1-2.107-.938c-1.663-1.618-3.148-3.116-4.54-4.579a3.79,3.79,0,0,1,.049-5.329,3.726,3.726,0,0,1,2.642-1.1,3.936,3.936,0,0,1,2.684,1.088c.412.386.779.821,1.138,1.219l1.9-1.859c1.64-1.6,3.235-3.159,4.827-4.719.359-.352.71-.71,1.062-1.068.279-.284.558-.568.84-.849a4.522,4.522,0,0,1,3.131-1.435,3.587,3.587,0,0,1,2.573,1.111c1.57,1.574,1.429,3.926-.341,5.719q-3.693,3.739-7.4,7.469l-2.839,2.864c-.142.143-.282.287-.423.432-.339.347-.689.706-1.052,1.043A3.18,3.18,0,0,1,1361.54,646.509Zm-3.656-9.329a.628.628,0,0,0-.68.053l-.007.006c-.292.222-.567.432-.625.656a1.77,1.77,0,0,0,.3,1.387c.674.757,1.408,1.488,2.117,2.2.591.59,1.2,1.2,1.78,1.824.318.344.558.5.777.5s.464-.152.782-.478c2.691-2.763,5.455-5.546,8.128-8.237q1.482-1.491,2.962-2.985l.1-.1c.14-.141.273-.273.391-.418a1.158,1.158,0,0,0-.012-1.7,1.137,1.137,0,0,0-.811-.376,1.455,1.455,0,0,0-.892.364,4.421,4.421,0,0,0-.454.438c-.064.068-.128.136-.193.2l-2.529,2.557q-3.114,3.148-6.235,6.293a1.789,1.789,0,0,1-1.217.7,1.852,1.852,0,0,1-1.238-.706c-.215-.212-.427-.429-.638-.646-.361-.37-.735-.753-1.122-1.1a3.524,3.524,0,0,0-.678-.43Z" fill="#009688"/>
          <path id="Trazado_1361" data-name="Trazado 1361" d="M1335.489,666.492a42.116,42.116,0,0,1-11.542-21.5,1.265,1.265,0,0,0-1.242-1.015h0a1.267,1.267,0,0,0-1.247,1.509,44.8,44.8,0,0,0,35.163,35.062,1.268,1.268,0,0,0,1.506-1.247h0a1.265,1.265,0,0,0-1.019-1.243,42.1,42.1,0,0,1-21.617-11.564Zm-12.837-36.907h0a1.266,1.266,0,0,0,1.244-1.023,42.21,42.21,0,0,1,33.21-33.331,1.265,1.265,0,0,0,1.019-1.242h0a1.268,1.268,0,0,0-1.507-1.248,44.8,44.8,0,0,0-35.214,35.343A1.267,1.267,0,0,0,1322.652,629.585Zm72.536-22.79a42.09,42.09,0,0,1,11.593,21.767,1.265,1.265,0,0,0,1.243,1.023h0a1.267,1.267,0,0,0,1.248-1.5,44.8,44.8,0,0,0-35.25-35.351,1.267,1.267,0,0,0-1.505,1.248h0a1.265,1.265,0,0,0,1.019,1.243,42.1,42.1,0,0,1,21.651,11.571Zm9.048,46.278a42.213,42.213,0,0,1-30.7,24.99,1.265,1.265,0,0,0-1.019,1.243h0a1.266,1.266,0,0,0,1.5,1.248,44.8,44.8,0,0,0,35.2-35.07,1.267,1.267,0,0,0-1.247-1.509h0a1.266,1.266,0,0,0-1.242,1.015A41.97,41.97,0,0,1,1404.236,653.073Z" fill="#009688"/>
        </g>
      </g>
    </g>
    <g id="Grupo_21682" data-name="Grupo 21682" transform="translate(10)">
      <text id="Recuperación_de_funciones" data-name="Recuperación
de funciones" transform="translate(684 2428)" fill="rgba(0,0,0,0.87)" font-size="16" font-family="Poppins-Medium, Poppins" font-weight="500" letter-spacing="0.009em"><tspan x="-56.84" y="0">Recuperación</tspan><tspan x="-52.688" y="24">de funciones</tspan></text>
      <g id="Grupo_21680" data-name="Grupo 21680" transform="translate(-681.333 1903.706)">
        <rect id="Rectángulo_10764" data-name="Rectángulo 10764" width="96" height="96" transform="translate(1317.333 395.294)" fill="none"/>
        <g id="Grupo_21679" data-name="Grupo 21679">
          <path id="Trazado_1362" data-name="Trazado 1362" d="M1366.787,395.381c.6.155,1.2.292,1.79.467a11.449,11.449,0,0,1,6.85,5.3c1.736,2.953,3.42,5.937,5.128,8.907.169.292.351.578.5.824a31.7,31.7,0,0,1,3.507-.734,12.435,12.435,0,0,1,12.32,5.983c.617.934,1.109,1.952,1.729,2.884a1.4,1.4,0,0,0,.924.552c4.379.347,6.663,4.343,4.765,8.327a1.345,1.345,0,0,0,.109,1.064c1.543,2.741,3.15,5.446,4.688,8.189a4.722,4.722,0,0,1-.734,5.7,4.6,4.6,0,0,1-5.5.928,6.474,6.474,0,0,1-2.165-2.1c-1.476-2.344-2.8-4.784-4.186-7.184-.153-.265-.322-.521-.54-.871l-5.492,3.172,2.577,4.488c.745,1.3,1.522,2.575,2.229,3.891a4.778,4.778,0,0,1-8.313,4.714c-1.593-2.676-3.136-5.382-4.672-8.091a1.27,1.27,0,0,0-1.163-.725,5.544,5.544,0,0,1-4.678-8.157,1.441,1.441,0,0,0-.057-1.153c-1.106-1.982-2.432-3.86-2.87-6.146a12.648,12.648,0,0,1,4.363-12.674c.116-.1.228-.21.339-.317a1.008,1.008,0,0,0,.086-.176c-1.97-3.391-3.789-6.953-6.009-10.245a8.553,8.553,0,0,0-14.387.562c-1.855,3.1-3.6,6.266-5.393,9.4a7.524,7.524,0,0,1-.486.8,1.588,1.588,0,0,1-2.079.455,1.532,1.532,0,0,1-.648-2.019c.376-.784.839-1.527,1.273-2.283,1.443-2.512,2.9-5.016,4.333-7.532a11.681,11.681,0,0,1,8.534-6.046,1.417,1.417,0,0,0,.33-.152Zm12.533,34.951,16.584-9.572c-.744-1.239-1.369-2.428-2.132-3.52a9.533,9.533,0,0,0-17.308,4.931C1376.229,425.279,1377.669,427.754,1379.32,430.332Zm-.086,5.322a2.358,2.358,0,0,0,3.657,1.94c2.522-1.418,5.01-2.9,7.512-4.351,3.391-1.968,6.793-3.918,10.169-5.912a2.38,2.38,0,0,0,.947-3.307,2.269,2.269,0,0,0-3.32-.742c-.951.53-1.886,1.089-2.829,1.634q-7.317,4.224-14.636,8.443A2.576,2.576,0,0,0,1379.234,435.654Zm19.519-3.6c1.564,2.715,3.077,5.349,4.6,7.977.614,1.06,1.538,1.392,2.381.885s.993-1.434.365-2.529q-1.968-3.435-3.954-6.861c-.2-.341-.4-.676-.631-1.058Zm-13.825,7.989c1.552,2.694,3.065,5.333,4.59,7.965.63,1.088,1.516,1.412,2.383.9s1-1.429.372-2.52q-2.1-3.635-4.21-7.259a6.29,6.29,0,0,0-.439-.589Z" fill="#009688"/>
          <path id="Trazado_1363" data-name="Trazado 1363" d="M1330.182,451.181c-1.867,3.361-3.837,6.583-5.491,9.961a8.7,8.7,0,0,0,7.844,12.47c3.367.029,6.735-.03,10.1.041a2.414,2.414,0,0,1,1.655.773,1.519,1.519,0,0,1-1.409,2.372q-2.992.047-5.986,0a43.6,43.6,0,0,1-6.343-.2,11.876,11.876,0,0,1-8.519-17.425c1.718-3.176,3.582-6.274,5.347-9.352a30.818,30.818,0,0,1-2.744-3.061,12.467,12.467,0,0,1-.75-13.756c.494-.935,1.041-1.845,1.6-2.744a1.027,1.027,0,0,0,.055-1.178,5.48,5.48,0,0,1,4.536-8.132,1.423,1.423,0,0,0,1.281-.83c1.429-2.52,2.885-5.025,4.342-7.528a4.8,4.8,0,1,1,8.265,4.822q-2.188,3.807-4.376,7.615a1.451,1.451,0,0,0-.075.234l5.461,3.15c.207-.342.385-.625.552-.915,1.4-2.426,2.786-4.866,4.213-7.278a4.784,4.784,0,1,1,8.282,4.787c-1.513,2.687-3.093,5.336-4.6,8.026a1.426,1.426,0,0,0-.07,1.152,5.542,5.542,0,0,1-4.554,8.284,1.324,1.324,0,0,0-1.213.791c-.469.878-.989,1.731-1.509,2.581a12.83,12.83,0,0,1-15.173,5.562C1330.7,451.343,1330.491,451.28,1330.182,451.181Zm14.759-9.857-16.566-9.563c-.545.942-1.016,1.782-1.511,2.607A9.529,9.529,0,0,0,1328.127,446a9.787,9.787,0,0,0,11.623,1.66C1342.319,446.264,1343.568,443.831,1344.941,441.324Zm-14.21-17.175a2.449,2.449,0,0,0-2.578,1.728,2.384,2.384,0,0,0,1.281,2.817q8.8,5.1,17.634,10.159a3.162,3.162,0,0,0,1.679.372,2.2,2.2,0,0,0,2-1.91,2.39,2.39,0,0,0-1.36-2.623q-8.766-5.074-17.548-10.12A5.978,5.978,0,0,0,1330.731,424.149Zm19.806,7.509c1.607-2.785,3.167-5.469,4.7-8.167a1.586,1.586,0,0,0-.474-2.277,1.605,1.605,0,0,0-2.3.719c-.9,1.525-1.779,3.067-2.663,4.6-.664,1.153-1.324,2.309-2.02,3.524Zm-13.828-7.985c1.633-2.831,3.227-5.541,4.765-8.283a1.522,1.522,0,0,0-1.37-2.352,2.436,2.436,0,0,0-1.507,1.043c-1.526,2.5-2.952,5.055-4.41,7.593a3.854,3.854,0,0,0-.181.437Z" fill="#009688"/>
          <path id="Trazado_1364" data-name="Trazado 1364" d="M1387.626,473.583c3.855,0,7.671.219,11.452-.05,6.138-.437,9.663-7.39,6.679-12.907-1.5-2.766-3.1-5.474-4.656-8.209-.154-.271-.309-.541-.458-.815a1.63,1.63,0,0,1,.483-2.423c.859-.472,1.713-.155,2.32.881.582.995,1.148,2,1.721,3,1.144,2,2.328,3.98,3.424,6.008A11.942,11.942,0,0,1,1398.11,476.8c-3.149.025-6.3.005-9.448.005h-1.05a13.067,13.067,0,0,1-3.832,7.591,12.6,12.6,0,0,1-8.4,3.584c-1.213.056-2.433-.008-3.647.043a1.161,1.161,0,0,0-.795.438c-2.5,3.645-7.115,3.657-9.586.032a1.336,1.336,0,0,0-.96-.469c-3.181-.036-6.362.012-9.542-.038a4.775,4.775,0,0,1-1.041-9.409,6.722,6.722,0,0,1,1.575-.139c2.681-.013,5.363-.006,8.045-.006h1.072v-6.328c-.321-.021-.648-.06-.974-.06-2.775-.005-5.551.026-8.326-.011a4.8,4.8,0,1,1,.02-9.592q4.49-.036,8.98.007a1.392,1.392,0,0,0,1.347-.718,5.5,5.5,0,0,1,9.215.044,1.4,1.4,0,0,0,1.275.68c2.2.14,4.495.007,6.568.614C1383.749,464.578,1386.611,468.3,1387.626,473.583ZM1371.769,484.8c1.3,0,2.49.06,3.668-.01a9.533,9.533,0,0,0,8.336-13.157c-2.165-5.16-6.735-6.546-12-5.85Zm-3.251-9.508c0-3.368-.01-6.736.005-10.1a2.488,2.488,0,0,0-1.091-2.335,2.277,2.277,0,0,0-2.4-.106,2.252,2.252,0,0,0-1.268,2.13q-.008,4.818-.006,9.635c0,3.618.01,7.235-.005,10.852a2.412,2.412,0,0,0,1.334,2.38,2.357,2.357,0,0,0,3.418-2.256C1368.539,482.086,1368.515,478.686,1368.518,475.288Zm-7.99-9.65c-1.661,0-3.214,0-4.767,0-1.621,0-3.244-.026-4.862.034a1.513,1.513,0,0,0-1.515,1.578,1.585,1.585,0,0,0,1.451,1.558,3.146,3.146,0,0,0,.466.032q4.3,0,8.6,0a3.643,3.643,0,0,0,.623-.11Zm-.018,15.989c-3.151,0-6.225-.006-9.3,0-1.13,0-1.807.6-1.827,1.548a1.658,1.658,0,0,0,1.867,1.633c2.3.015,4.6,0,6.9,0h2.358Z" fill="#009688"/>
        </g>
      </g>
    </g>
    <g id="Grupo_21685" data-name="Grupo 21685">
      <text id="Almacenamiento" transform="translate(437 2858)" fill="rgba(0,0,0,0.87)" font-size="16" font-family="Poppins-Medium, Poppins" font-weight="500" letter-spacing="0.009em"><tspan x="-71.344" y="0">Almacenamiento</tspan></text>
      <g id="Grupo_21684" data-name="Grupo 21684" transform="translate(-725.667 2140.294)">
        <rect id="Rectángulo_10765" data-name="Rectángulo 10765" width="96" height="96" transform="translate(1114.667 588.706)" fill="none"/>
        <g id="Grupo_21683" data-name="Grupo 21683">
          <path id="Trazado_1365" data-name="Trazado 1365" d="M1200.724,684.576a2.273,2.273,0,0,1-.946-2.179c.014-11.048.013-22.282.013-33.145V639.7h-74.264v9.549c0,10.864,0,22.1.012,33.147a2.281,2.281,0,0,1-.947,2.177h-9.87V615.314c.133-.109.263-.222.393-.336a6,6,0,0,1,1.005-.762q9.337-5.163,18.681-10.317c8.7-4.8,17.7-9.769,26.541-14.667a2.688,2.688,0,0,1,1.31-.4,2.609,2.609,0,0,1,1.335.424c14.193,8.349,29.04,17.053,45.389,26.609a2.191,2.191,0,0,1,1.237,2.148c-.022,20.539-.023,41.64,0,64.506a2.075,2.075,0,0,1-.98,2.052Zm-.067-60.531a5.015,5.015,0,0,1,.7.038,1.232,1.232,0,0,1,1.158,1.152,8.01,8.01,0,0,1,.041,1.031v.159q0,24.189,0,48.377v6.969h5.282v-9.116c0-17.533,0-35.663.017-53.493a1.541,1.541,0,0,0-.888-1.5c-15.842-9.267-30.025-17.582-43.361-25.42a1.691,1.691,0,0,0-1.919-.04c-14.643,8.1-29.2,16.132-43.268,23.859a1.626,1.626,0,0,0-.954,1.65c.016,18.3.016,36.915.015,54.912v9.127h5.282v-7.366q0-23.959,0-47.919v-.183a8.513,8.513,0,0,1,.037-1.011,1.242,1.242,0,0,1,1.212-1.2,5.333,5.333,0,0,1,.65-.03h75.6ZM1125.6,636.817h74.153V633.28H1125.6Zm-.021-6.4h74.147v-3.551h-74.147Z" fill="#009688"/>
          <path id="Trazado_1366" data-name="Trazado 1366" d="M1155.763,684.576a2.283,2.283,0,0,1-.933-2.184c.016-4.152.014-8.374.012-12.456q0-2.611,0-5.224c0-1.771.388-2.153,2.178-2.154h17.113v-5.884q0-5.643,0-11.287c0-1.731.377-2.1,2.121-2.1h9.375q4.248,0,8.5,0c1.592,0,2.005.418,2.005,2.031v9.206c0,9.188,0,18.689.015,28.033a1.969,1.969,0,0,1-1,2.024Zm1.888-2.794H1174V665.409h-3.525v1.5c0,.932,0,1.837,0,2.742-.005,1.663-.428,2.094-2.059,2.1q-1.238,0-2.477,0l-2.6,0c-1.637-.005-2.063-.433-2.07-2.081-.005-.921,0-1.843,0-2.773v-1.486h-3.619Zm19.334-.039h16.332V665.415h-3.6v1.562c0,.979,0,1.927,0,2.876-.007,1.422-.462,1.882-1.873,1.893q-1.109.009-2.219.008-.99,0-1.979,0l-.972,0c-1.744,0-2.121-.378-2.123-2.11q0-1.414,0-2.822v-1.385h-3.567Zm-12.937-16.14c0,.259,0,.508-.005.751-.007.626-.013,1.218.028,1.806a.984.984,0,0,0,.682.793c.363.026.749.037,1.253.037.228,0,.458,0,.69,0s.475-.005.718-.005h.224v-3.6h-3.59Zm19.32,3.314h3.538V665.41h-3.538Zm-6.408-6.49h16.34V646.092h-3.38l-.06.129c-.015.032-.03.058-.042.081a.451.451,0,0,0-.075.223q-.016,1.881-.023,3.76c0,1.85-.336,2.176-2.219,2.177l-2.715,0-2.172,0c-1.693,0-2.059-.367-2.062-2.046,0-.947,0-1.894,0-2.851v-1.493h-3.592Zm6.4-12.8h3.527v-3.528h-3.527Z" fill="#009688"/>
          <path id="Trazado_1367" data-name="Trazado 1367" d="M1162.682,620.4c-2.556,0-5.156-.005-7.726-.016-1.207-.005-1.68-.5-1.688-1.776-.011-1.888-.011-3.784,0-5.634.008-1.316.457-1.764,1.778-1.775q1.578-.014,3.156-.012l2.169,0,2.171,0,4.576,0q1.48,0,2.96.005c1.562.006,1.968.409,1.972,1.962,0,1.785.009,3.631,0,5.447-.008,1.277-.48,1.776-1.683,1.781C1167.823,620.391,1165.238,620.4,1162.682,620.4Zm-6.611-2.829h13.169v-3.535h-13.169Z" fill="#009688"/>
        </g>
      </g>
    </g>
    <g id="Grupo_21686" data-name="Grupo 21686">
      <text id="AEE" transform="translate(189 2428)" fill="rgba(0,0,0,0.87)" font-size="16" font-family="Poppins-Medium, Poppins" font-weight="500" letter-spacing="0.009em"><tspan x="-14.104" y="0">AEE</tspan></text>
      <g id="smartphone" transform="translate(-629.87 1806.953)">
        <rect id="Rectángulo_10766" data-name="Rectángulo 10766" width="95.953" height="95.953" transform="translate(770.87 492.047)" fill="none"/>
        <path id="Trazado_1368" data-name="Trazado 1368" d="M846.761,502.876a9,9,0,0,0-9.419-9.317q-18.516-.006-37.032,0a9.889,9.889,0,0,0-1.491.076,9.019,9.019,0,0,0-7.9,9.275v2.342h-.006v3.011h.005q-.009,15.887,0,31.773,0,13.8,0,27.608h0v3h0q0,3.212,0,6.423a9.037,9.037,0,0,0,9.422,9.416q18.47.009,36.938,0c5.56,0,9.475-3.825,9.479-9.361Q846.79,540,846.761,502.876Zm-51.526,2.378H793.8a29.4,29.4,0,0,1,.43-4.417,5.731,5.731,0,0,1,5.606-4.272q18.983-.035,37.965,0a5.885,5.885,0,0,1,5.9,5.4,12.66,12.66,0,0,1,.058,1.306v1.98H795.235Zm-1.319,4.2v-1.191h49.846q0,29.112,0,58.222v1.156h-1.246q-16.747,0-33.495,0H793.917Q793.916,538.551,793.916,509.456ZM843.6,578.579a5.742,5.742,0,0,1-5.839,4.906c-1.776.039-3.553.01-5.33.01H800.638c-4.314,0-6.721-2.4-6.721-6.712v-6.136h5.87c.155,0,.31,0,.464,0H843.54c.086.1.162.142.162.188C843.687,573.418,843.83,576.015,843.6,578.579Z" fill="#009688"/>
        <path id="Trazado_1369" data-name="Trazado 1369" d="M818.894,572.486a4.581,4.581,0,1,0,4.538,4.632A4.587,4.587,0,0,0,818.894,572.486Zm-.076,6.165a1.586,1.586,0,0,1,0-3.172,1.586,1.586,0,1,1,0,3.172Z" fill="#009688"/>
        <path id="Trazado_1370" data-name="Trazado 1370" d="M826.8,499.394c-2.053-.035-4.106-.01-6.16-.01-3.173,0-6.347.005-9.52,0-.845,0-1.563.19-1.838,1.1a1.465,1.465,0,0,0,1.547,1.9c2.676.023,5.352.007,8.027.007v.005c2.614,0,5.228.041,7.84-.035a2.175,2.175,0,0,0,1.539-.759C828.92,500.6,828.119,499.417,826.8,499.394Z" fill="#009688"/>
      </g>
    </g>
  </g>
</svg>
