<svg xmlns="http://www.w3.org/2000/svg" width="24" height="24" viewBox="0 0 24 24">
  <g id="icono_sidebar_separar_24x24" transform="translate(-26 -269)">
    <rect id="Rectángulo_10996" data-name="Rectángulo 10996" width="24" height="24" transform="translate(26 269)" fill="#c9c9c9" opacity="0"/>
    <path id="conveyor_belt_FILL0_wght300_GRAD0_opsz24" d="M102.369-784.839a2.286,2.286,0,0,1-1.681-.688,2.286,2.286,0,0,1-.688-1.681,2.286,2.286,0,0,1,.688-1.681,2.286,2.286,0,0,1,1.681-.688h13.263a2.286,2.286,0,0,1,1.681.688,2.286,2.286,0,0,1,.688,1.681,2.286,2.286,0,0,1-.688,1.681,2.286,2.286,0,0,1-1.681.688Zm0-1.421h13.263a.917.917,0,0,0,.675-.272.917.917,0,0,0,.272-.675.917.917,0,0,0-.272-.675.917.917,0,0,0-.675-.272H102.369a.917.917,0,0,0-.675.272.917.917,0,0,0-.272.675.917.917,0,0,0,.272.675A.917.917,0,0,0,102.369-786.26Zm5.571-5.211a.825.825,0,0,1-.607-.245.825.825,0,0,1-.245-.608v-6.821a.825.825,0,0,1,.245-.607.825.825,0,0,1,.607-.245h6.821a.825.825,0,0,1,.607.245.825.825,0,0,1,.245.607v6.821a.825.825,0,0,1-.245.607.825.825,0,0,1-.608.245Zm.569-1.421h5.684v-5.684h-5.684ZM100-793.158v-1.377h5.149v1.377Zm9.455-2.813h3.789v-1.406h-3.789Zm-7.561,0h3.254v-1.406H101.9Zm6.613,3.079v0Z" transform="translate(-71.001 1073.997)" fill="#B00020"/>
  </g>
</svg>
