<svg xmlns="http://www.w3.org/2000/svg" width="24" height="24" viewBox="0 0 24 24">
  <g id="icono_sidebar_clasificar_24x24" transform="translate(-26 -269)">
    <rect id="Rectángulo_10996" data-name="Rectángulo 10996" width="24" height="24" transform="translate(26 269)" fill="#c9c9c9" opacity="0"/>
    <path id="category_FILL0_wght300_GRAD0_opsz24" d="M139.015-843.252l4.582-7.515,4.582,7.515Zm9.825,10.485a3.785,3.785,0,0,1-2.782-1.141,3.785,3.785,0,0,1-1.141-2.782,3.785,3.785,0,0,1,1.141-2.782,3.785,3.785,0,0,1,2.782-1.141,3.785,3.785,0,0,1,2.782,1.141,3.785,3.785,0,0,1,1.141,2.782,3.785,3.785,0,0,1-1.141,2.782A3.785,3.785,0,0,1,148.84-832.767Zm-13.454-.477v-6.892h6.892v6.892Zm13.454-.953a2.408,2.408,0,0,0,1.77-.723,2.406,2.406,0,0,0,.723-1.77,2.408,2.408,0,0,0-.723-1.77,2.407,2.407,0,0,0-1.77-.723,2.408,2.408,0,0,0-1.77.723,2.406,2.406,0,0,0-.723,1.77,2.408,2.408,0,0,0,.723,1.77A2.407,2.407,0,0,0,148.84-834.2Zm-12.024-.477h4.033v-4.033h-4.033Zm4.722-10.008h4.121L143.6-848ZM143.6-844.682ZM140.848-838.706ZM148.84-836.69Z" transform="translate(-106.386 1122.767)" fill="#ffff"/>
  </g>
</svg>
