<svg xmlns="http://www.w3.org/2000/svg" width="48" height="48" viewBox="0 0 48 48">
  <g id="icono_check_circulo_48x48" transform="translate(-1071 -206)">
    <rect id="Rectángulo_10996" data-name="Rectángulo 10996" width="48" height="48" transform="translate(1071 206)" fill="none"/>
    <path id="check_circle_FILL0_wght300_GRAD0_opsz24" d="M115.312-833.939l12.738-12.738-2-2-10.742,10.742-5.4-5.4-2,2ZM118-824a17.535,17.535,0,0,1-7.02-1.417,18.181,18.181,0,0,1-5.717-3.847,18.174,18.174,0,0,1-3.849-5.714A17.518,17.518,0,0,1,100-842a17.534,17.534,0,0,1,1.417-7.02,18.182,18.182,0,0,1,3.847-5.717,18.172,18.172,0,0,1,5.714-3.849A17.517,17.517,0,0,1,118-860a17.533,17.533,0,0,1,7.02,1.417,18.182,18.182,0,0,1,5.717,3.847,18.172,18.172,0,0,1,3.849,5.714A17.517,17.517,0,0,1,136-842a17.534,17.534,0,0,1-1.417,7.02,18.184,18.184,0,0,1-3.847,5.717,18.176,18.176,0,0,1-5.714,3.849A17.517,17.517,0,0,1,118-824Zm0-2.842a14.629,14.629,0,0,0,10.753-4.405A14.629,14.629,0,0,0,133.159-842a14.629,14.629,0,0,0-4.405-10.753A14.629,14.629,0,0,0,118-857.157a14.629,14.629,0,0,0-10.753,4.405A14.629,14.629,0,0,0,102.843-842a14.629,14.629,0,0,0,4.405,10.753A14.629,14.629,0,0,0,118-826.841ZM118-842Z" transform="translate(976.999 1071.999)" fill="#009688"/>
  </g>
</svg>
