<svg xmlns="http://www.w3.org/2000/svg" width="48" height="48" viewBox="0 0 48 48">
  <g id="Grupo_22069" data-name="Grupo 22069" transform="translate(-26 -269)">
    <rect id="Rectángulo_10996" data-name="Rectángulo 10996" width="48" height="48" transform="translate(26 269)" fill="#c9c9c9" opacity="0"/>
    <path id="account_circle_FILL0_wght300_GRAD0_opsz24" d="M106.676-831.971a20.67,20.67,0,0,1,5.263-2.831A17.554,17.554,0,0,1,118-835.841a17.554,17.554,0,0,1,6.061,1.038,20.67,20.67,0,0,1,5.263,2.831,14.932,14.932,0,0,0,2.8-4.5A14.614,14.614,0,0,0,133.159-842a14.612,14.612,0,0,0-4.429-10.729A14.612,14.612,0,0,0,118-857.157a14.612,14.612,0,0,0-10.729,4.429A14.612,14.612,0,0,0,102.843-842a14.614,14.614,0,0,0,1.033,5.531A14.932,14.932,0,0,0,106.676-831.971ZM118-840.578a5.951,5.951,0,0,1-4.377-1.781,5.948,5.948,0,0,1-1.782-4.376,5.951,5.951,0,0,1,1.781-4.377A5.948,5.948,0,0,1,118-852.894a5.951,5.951,0,0,1,4.377,1.781,5.948,5.948,0,0,1,1.782,4.376,5.951,5.951,0,0,1-1.781,4.377A5.948,5.948,0,0,1,118-840.578ZM118-824a17.639,17.639,0,0,1-7.034-1.41,18.077,18.077,0,0,1-5.715-3.84,18.077,18.077,0,0,1-3.84-5.715A17.64,17.64,0,0,1,100-842a17.641,17.641,0,0,1,1.41-7.034,18.078,18.078,0,0,1,3.84-5.715,18.077,18.077,0,0,1,5.715-3.84A17.641,17.641,0,0,1,118-860a17.641,17.641,0,0,1,7.034,1.41,18.077,18.077,0,0,1,5.715,3.84,18.078,18.078,0,0,1,3.84,5.715A17.641,17.641,0,0,1,136-842a17.64,17.64,0,0,1-1.41,7.034,18.077,18.077,0,0,1-3.84,5.715,18.077,18.077,0,0,1-5.715,3.84A17.639,17.639,0,0,1,118-824Zm0-2.842a15,15,0,0,0,4.946-.825,14.028,14.028,0,0,0,4.229-2.308A14.411,14.411,0,0,0,123-832.2a15.313,15.313,0,0,0-5-.8,15.555,15.555,0,0,0-5.01.789,13.739,13.739,0,0,0-4.165,2.235,14.028,14.028,0,0,0,4.229,2.308A15,15,0,0,0,118-826.841Zm0-16.579a3.211,3.211,0,0,0,2.365-.951,3.21,3.21,0,0,0,.951-2.365,3.21,3.21,0,0,0-.951-2.365,3.211,3.211,0,0,0-2.365-.951,3.211,3.211,0,0,0-2.365.951,3.211,3.211,0,0,0-.951,2.365,3.211,3.211,0,0,0,.951,2.365A3.211,3.211,0,0,0,118-843.42ZM118-846.736ZM118-829.92Z" transform="translate(-68.001 1134.999)" fill="#b00020"/>
  </g>
</svg>
