<svg xmlns="http://www.w3.org/2000/svg" width="48" height="48" viewBox="0 0 48 48">
  <g id="icono_sobre_48x48" transform="translate(-3338 -696)">
    <rect id="Rectángulo_10995" data-name="Rectángulo 10995" width="48" height="48" transform="translate(3338 696)" fill="none"/>
    <path id="mail_FILL0_wght300_GRAD0_opsz24" d="M103.426-751.578a3.306,3.306,0,0,1-2.43-.995A3.307,3.307,0,0,1,100-755v-21.571A3.306,3.306,0,0,1,101-779a3.306,3.306,0,0,1,2.43-.995h29.15a3.306,3.306,0,0,1,2.43.995,3.306,3.306,0,0,1,.995,2.43V-755a3.307,3.307,0,0,1-.995,2.431,3.306,3.306,0,0,1-2.43.995ZM118-764.732l-15.158-9.692V-755a.567.567,0,0,0,.164.419.567.567,0,0,0,.419.164h29.15a.567.567,0,0,0,.419-.164.567.567,0,0,0,.164-.419v-19.421Zm0-2.951,14.866-9.474H103.135Zm-15.158-6.741V-755a.567.567,0,0,0,.164.419.567.567,0,0,0,.419.164h-.583Z" transform="translate(3243.999 1485.999)" fill="#009688"/>
  </g>
</svg>
