<svg id="icono_sidebar_usuarios_24x24" xmlns="http://www.w3.org/2000/svg" width="24" height="24" viewBox="0 0 24 24">
  <rect id="Rectángulo_10996" data-name="Rectángulo 10996" width="24" height="24" fill="#c9c9c9" opacity="0"/>
  <path id="account_circle_FILL0_wght300_GRAD0_opsz24" d="M103.339-845.985a10.335,10.335,0,0,1,2.632-1.416A8.777,8.777,0,0,1,109-847.92a8.777,8.777,0,0,1,3.031.519,10.335,10.335,0,0,1,2.632,1.416,7.466,7.466,0,0,0,1.4-2.248A7.307,7.307,0,0,0,116.58-851a7.306,7.306,0,0,0-2.214-5.364A7.306,7.306,0,0,0,109-858.578a7.306,7.306,0,0,0-5.364,2.215A7.306,7.306,0,0,0,101.422-851a7.307,7.307,0,0,0,.517,2.766A7.466,7.466,0,0,0,103.339-845.985Zm5.663-4.3a2.976,2.976,0,0,1-2.188-.891,2.974,2.974,0,0,1-.891-2.188,2.975,2.975,0,0,1,.891-2.188,2.974,2.974,0,0,1,2.188-.891,2.976,2.976,0,0,1,2.188.891,2.974,2.974,0,0,1,.891,2.188,2.975,2.975,0,0,1-.891,2.188A2.974,2.974,0,0,1,109-850.289ZM109-842a8.82,8.82,0,0,1-3.517-.705,9.038,9.038,0,0,1-2.858-1.92,9.038,9.038,0,0,1-1.92-2.858A8.82,8.82,0,0,1,100-851a8.821,8.821,0,0,1,.705-3.517,9.039,9.039,0,0,1,1.92-2.858,9.038,9.038,0,0,1,2.858-1.92A8.821,8.821,0,0,1,109-860a8.821,8.821,0,0,1,3.517.705,9.039,9.039,0,0,1,2.858,1.92,9.039,9.039,0,0,1,1.92,2.858A8.821,8.821,0,0,1,118-851a8.82,8.82,0,0,1-.705,3.517,9.038,9.038,0,0,1-1.92,2.858,9.039,9.039,0,0,1-2.858,1.92A8.82,8.82,0,0,1,109-842Zm0-1.421a7.5,7.5,0,0,0,2.473-.413,7.014,7.014,0,0,0,2.114-1.154A7.205,7.205,0,0,0,111.5-846.1a7.657,7.657,0,0,0-2.5-.4,7.777,7.777,0,0,0-2.505.394,6.869,6.869,0,0,0-2.082,1.118,7.014,7.014,0,0,0,2.114,1.154A7.5,7.5,0,0,0,109-843.42Zm0-8.289a1.605,1.605,0,0,0,1.182-.475,1.605,1.605,0,0,0,.476-1.182,1.605,1.605,0,0,0-.476-1.182,1.605,1.605,0,0,0-1.182-.475,1.605,1.605,0,0,0-1.182.475,1.605,1.605,0,0,0-.476,1.182,1.605,1.605,0,0,0,.476,1.182A1.605,1.605,0,0,0,109-851.71ZM109-853.367ZM109-844.96Z" transform="translate(-97.001 862.999)" fill="#009688"/>
</svg>
