<svg xmlns="http://www.w3.org/2000/svg" width="24" height="24" viewBox="0 0 24 24">
  <g id="icono_descarga_24x24" transform="translate(911 1774)">
    <rect id="Rectángulo_11019" data-name="Rectángulo 11019" width="24" height="24" transform="translate(-911 -1774)" fill="none"/>
    <path id="download_FILL0_wght300_GRAD0_opsz24" d="M189-766.453l-5.123-5.123,1.265-1.3,2.958,2.958V-780h1.8v10.08l2.958-2.958,1.265,1.3ZM182.17-762a2.094,2.094,0,0,1-1.539-.63,2.094,2.094,0,0,1-.63-1.539v-3.254h1.8v3.254a.353.353,0,0,0,.115.254.353.353,0,0,0,.254.115h13.662a.353.353,0,0,0,.254-.115.353.353,0,0,0,.115-.254v-3.254H198v3.254a2.094,2.094,0,0,1-.63,1.539,2.094,2.094,0,0,1-1.539.63Z" transform="translate(-1088.001 -991.001)" fill="#fff"/>
  </g>
</svg>
