<svg id="icono_sidebar_analiticas_24x24" xmlns="http://www.w3.org/2000/svg" width="24" height="24" viewBox="0 0 24 24">
  <rect id="Rectángulo_10996" data-name="Rectángulo 10996" width="24" height="24" fill="#c9c9c9" opacity="0"/>
  <path id="data_usage_FILL0_wght300_GRAD0_opsz24" d="M109-840.046a8.749,8.749,0,0,1-3.508-.71,9.1,9.1,0,0,1-2.858-1.925,9.1,9.1,0,0,1-1.925-2.858,8.749,8.749,0,0,1-.71-3.508,8.715,8.715,0,0,1,2.3-6.034,8.724,8.724,0,0,1,5.75-2.919v2a6.736,6.736,0,0,0-4.333,2.326A6.831,6.831,0,0,0,102-849.046a6.751,6.751,0,0,0,2.035,4.961A6.751,6.751,0,0,0,109-842.05a7.09,7.09,0,0,0,3.078-.69,6.791,6.791,0,0,0,2.46-1.974l1.734,1.02a8.944,8.944,0,0,1-3.2,2.693A8.963,8.963,0,0,1,109-840.046Zm8.249-5.4-1.734-1a6.016,6.016,0,0,0,.37-1.278,7.811,7.811,0,0,0,.111-1.32,6.848,6.848,0,0,0-1.715-4.628,6.689,6.689,0,0,0-4.333-2.321v-2a8.537,8.537,0,0,1,5.754,2.9,8.791,8.791,0,0,1,2.3,6.052,10.118,10.118,0,0,1-.169,1.843A6.788,6.788,0,0,1,117.25-845.446Z" transform="translate(-97.001 860.999)" fill="rgba(0,0,0,0.6)"/>
</svg>
