<svg xmlns="http://www.w3.org/2000/svg" viewBox="0 0 95.95 95.95"><defs><style>.cls-1{fill:none;}.cls-2{fill:#009688;}</style></defs><title>aire_acondicionado</title><g id="Capa_2" data-name="Capa 2"><g id="Capa_1-2" data-name="Capa 1"><g id="aire_acondicionado"><rect class="cls-1" width="95.95" height="95.95"/><path class="cls-2" d="M96,45.91a9.32,9.32,0,0,1-.64,3.5,7.21,7.21,0,0,1-1.15,2,7.91,7.91,0,0,1-5.82,3c-.34,0-.68,0-1,0H8.64c-2.86,0-5.34-.85-7-3.24A7.93,7.93,0,0,1,1,49.81,12.71,12.71,0,0,1,0,44.9V14.5a7.82,7.82,0,0,1,.13-1.28h0A8,8,0,0,1,8.32,6.48q39.66,0,79.31,0a8.25,8.25,0,0,1,5.45,1.89,7.67,7.67,0,0,1,2,2.69A8.86,8.86,0,0,1,96,14.89Zm-8,5.22a5.82,5.82,0,0,0,.6,0A4.85,4.85,0,0,0,92.76,46q0-15.58,0-31.15A6.7,6.7,0,0,0,92.5,13,4.47,4.47,0,0,0,87.94,9.8c0,1.42,0,2.85,0,4.28a8.12,8.12,0,0,1-1.62,5.16,8.29,8.29,0,0,1-7,3.21c-7.38,0-14.75,0-22.12,0q-20.24,0-40.48,0a8.32,8.32,0,0,1-7-3.18A8.14,8.14,0,0,1,8,14c0-1.42,0-2.85,0-4.31H7.52a4.8,4.8,0,0,0-4.32,5.1q0,15.63,0,31.24a6.19,6.19,0,0,0,.34,2,4.46,4.46,0,0,0,4.46,3v-1c0-3.77,0-7.55,0-11.32,0-1.35.59-1.91,2-2H81.54c1.47,0,2.94,0,4.41,0a2,2,0,0,1,2,2c0,2,0,4,0,6.07ZM84.69,9.72H11.26c0,1.87-.12,3.68,0,5.47s1.81,4.08,5.32,4.07q31.38-.06,62.75,0c.38,0,.75,0,1.13,0a4.58,4.58,0,0,0,4.16-3.92C84.81,13.45,84.69,11.61,84.69,9.72ZM11.25,41.56H84.67v-1.5H11.25Zm73.45,3.3H11.29v1.46H84.7Zm0,4.79H11.28v1.48H84.69Z"/><path class="cls-2" d="M32,87.34a10.83,10.83,0,0,1,2.14-5.52,6,6,0,0,0,.72-5.53,12.73,12.73,0,0,0-1.28-2.38,9.38,9.38,0,0,1-.6-9.26,6.85,6.85,0,0,1,.74-1.29,7.74,7.74,0,0,0,1.54-4.24,1.56,1.56,0,0,1,1.66-1.54,1.64,1.64,0,0,1,1.49,1.83A9.53,9.53,0,0,1,37,64.1a13.14,13.14,0,0,0-1.5,2.78,5.9,5.9,0,0,0,.81,5.43A9.6,9.6,0,0,1,38,80.79,12.93,12.93,0,0,1,36.49,84a7.47,7.47,0,0,0-1.3,3.73,1.6,1.6,0,0,1-1.38,1.74,1.42,1.42,0,0,1-1.61-.85A5.21,5.21,0,0,1,32,87.34Z"/><path class="cls-2" d="M63.93,78.29A9.36,9.36,0,0,1,62.11,84a7.36,7.36,0,0,0-1.36,3.81,1.62,1.62,0,0,1-1.69,1.71c-1-.09-1.53-.88-1.48-2a11.14,11.14,0,0,1,2.08-5.61,6.15,6.15,0,0,0,0-7,18.18,18.18,0,0,1-1.46-2.71,8.9,8.9,0,0,1,.68-8.16,9.89,9.89,0,0,0,1.9-4.88,1.51,1.51,0,0,1,1.7-1.47,1.62,1.62,0,0,1,1.42,1.78A9.51,9.51,0,0,1,62,65a5.87,5.87,0,0,0-1.08,4.78,7.85,7.85,0,0,0,1,2.56A10.47,10.47,0,0,1,63.93,78.29Z"/><path class="cls-2" d="M44.81,87.11A8.92,8.92,0,0,1,46.18,83a19.17,19.17,0,0,0,1-1.66,6.11,6.11,0,0,0-.38-6.55c-1.8-2.64-2.61-5.46-1.65-8.57a14.8,14.8,0,0,1,1.58-3.25A7.36,7.36,0,0,0,48,59.34a1.6,1.6,0,1,1,3.17.13,8.93,8.93,0,0,1-1.35,4.6c-.36.58-.78,1.13-1.08,1.74a6.06,6.06,0,0,0,.37,6.47c1.62,2.4,2.56,5,1.84,7.84a16.86,16.86,0,0,1-1.79,4.06A7.94,7.94,0,0,0,48,87.67c-.06,1.16-.78,1.89-1.71,1.81S44.76,88.64,44.81,87.11Z"/><path class="cls-2" d="M46.38,32.05c2.12,0,4.24,0,6.36,0a1.53,1.53,0,0,1,1.61,1.49,1.6,1.6,0,0,1-1.47,1.64,2.33,2.33,0,0,1-.37,0c-4.09,0-8.18,0-12.26,0-1.14,0-1.83-.64-1.84-1.57s.68-1.6,1.88-1.61h6.09Z"/><path class="cls-2" d="M80.53,25.64c1.84,0,2.63.55,2.61,1.63s-.81,1.58-2.41,1.57a4.85,4.85,0,0,1-.93-.06,1.55,1.55,0,0,1,0-3.1C80.16,25.64,80.48,25.65,80.53,25.64Z"/><path class="cls-2" d="M87.12,28.84c-.13,0-.25,0-.38,0-1.25,0-2-.66-2-1.64s.73-1.52,2-1.55a11.41,11.41,0,0,1,1.31,0,1.55,1.55,0,0,1,.1,3.1c-.33.06-.68.06-1,.09Z"/></g></g></g></svg>