<svg xmlns="http://www.w3.org/2000/svg" viewBox="0 0 95.95 95.95"><defs><style>.cls-1{fill:none;}.cls-2{fill:#009688;}</style></defs><title>lavadora</title><g id="Capa_2" data-name="Capa 2"><g id="Capa_1-2" data-name="Capa 1"><g id="lavadora"><rect class="cls-1" width="95.95" height="95.95"/><path class="cls-2" d="M78.29,1.79a4.56,4.56,0,0,1,2.22.57h0A4.56,4.56,0,0,1,83,6.2a4.87,4.87,0,0,1,0,.54V89.18a4.68,4.68,0,0,1-3.89,4.9,7.59,7.59,0,0,1-1.35.08H18.23c-3.36,0-5.25-1.89-5.25-5.26q0-40.59,0-81.18c0-2.11.48-3.76,1.8-4.87a4.8,4.8,0,0,1,3.09-1.07ZM16,84.71H80V20.78H16Zm64-67V7.2c0-1.89-.52-2.41-2.41-2.41H38.3V5.88c0,3.58,0,7.16,0,10.74,0,.92.23,1.15,1.15,1.14q19.76,0,39.51,0C79.26,17.74,79.58,17.71,80,17.69ZM35.29,4.84c-.34,0-.63,0-.92,0H18.31c-1.82,0-2.34.53-2.34,2.38,0,3.18,0,6.37,0,9.56,0,.31,0,.63,0,.93H35.29ZM80,87.87H16c0,.63-.05,1.19,0,1.75a1.66,1.66,0,0,0,1.42,1.49,9.4,9.4,0,0,0,1.19,0H77.79c1.65,0,2.21-.57,2.23-2.22Z"/><path class="cls-2" d="M48,27.34A22.24,22.24,0,1,1,25.77,49.5,22.26,22.26,0,0,1,48,27.34ZM67.26,49.7A19.25,19.25,0,1,0,47.91,68.81,19.34,19.34,0,0,0,67.26,49.7Z"/><path class="cls-2" d="M47.86,15.92a4.66,4.66,0,1,1,4.81-4.48A4.67,4.67,0,0,1,47.86,15.92ZM48,13a1.69,1.69,0,1,0-1.66-1.67A1.69,1.69,0,0,0,48,13Z"/><path class="cls-2" d="M60,9.75c.75,0,1.5,0,2.25,0a1.55,1.55,0,0,1,1.63,1.47,1.53,1.53,0,0,1-1.66,1.53c-1.47,0-3,0-4.42,0a1.5,1.5,0,0,1-1.66-1.51c0-.88.64-1.44,1.69-1.5H60Z"/><path class="cls-2" d="M71.15,12.77c-.72,0-1.45,0-2.17,0-1.06,0-1.68-.6-1.7-1.48a1.51,1.51,0,0,1,1.64-1.53c1.47,0,3,0,4.42,0a1.51,1.51,0,1,1,0,3C72.59,12.79,71.87,12.77,71.15,12.77Z"/><path class="cls-2" d="M25.72,13h4.42c1.11,0,1.78.59,1.78,1.49a1.52,1.52,0,0,1-1.7,1.48c-3,0-6.07,0-9.11,0-1.1,0-1.76-.64-1.73-1.53S20.08,13,21.21,13Z"/><path class="cls-2" d="M47.87,65.44a15.86,15.86,0,1,1,16-15.64A15.94,15.94,0,0,1,47.87,65.44ZM48,36.72A12.86,12.86,0,1,0,60.84,49.56,12.83,12.83,0,0,0,48,36.72Z"/></g></g></g></svg>