<svg xmlns="http://www.w3.org/2000/svg" width="32" height="32" viewBox="0 0 32 32">
  <g id="icono_ventaja_1_32x32" transform="translate(-944 -524)">
    <rect id="Rectángulo_10782" data-name="Rectángulo 10782" width="32" height="32" transform="translate(944 524)" fill="none"/>
    <path id="Trazado_1387" data-name="Trazado 1387" d="M963.746,527.341a.475.475,0,0,1-.467-.532c0-.188,0-.376,0-.564,0-.331.009-.673-.012-1.017a.7.7,0,0,1,.338-.759h.277a.7.7,0,0,1,.338.76c-.021.343-.017.685-.012,1.016,0,.188.005.376,0,.564A.474.474,0,0,1,963.746,527.341Z" fill="#009688"/>
    <path id="Trazado_1388" data-name="Trazado 1388" d="M949.965,555.531q-1.163,0-2.325-.006l-.741,0c-.121,0-.492,0-.493-.6,0-2.166,0-8.934,0-8.934V538.4c0-.554.13-.682.694-.682l3.141,0q1.023,0,2.046,0a2.345,2.345,0,0,1,2.319,1.352.649.649,0,0,0,.593.393.934.934,0,0,0,.3-.056,6.122,6.122,0,0,0,2.579-1.731,12.225,12.225,0,0,0,3.006-5.8c.1-.426.206-.853.312-1.254a.519.519,0,0,1,.588-.461l.125,0c.135,0,.27,0,.4,0a3.668,3.668,0,0,1,1.539.253,3.182,3.182,0,0,1,2.034,2.977,17.426,17.426,0,0,1-.672,5.377c-.015.051-.027.1-.041.163l-.16.671,3.932,0q.993,0,1.984.005a2.264,2.264,0,0,1,2.2,1.3,2.172,2.172,0,0,1-.178,2.385.834.834,0,0,0,.007,1.081,2.271,2.271,0,0,1,0,2.673.77.77,0,0,0-.046,1.008,2.308,2.308,0,0,1-1.075,3.594c-.053.02-.1.043-.135.057l-.3.133,0,.338c.011.153.029.306.047.456a3.755,3.755,0,0,1,.039.8,2.271,2.271,0,0,1-2.309,2.105q-1.635.013-3.272.012-2.484,0-4.968-.019a9.284,9.284,0,0,1-2.909-.551l-.82-.272c-.653-.215-1.305-.431-1.954-.658a.943.943,0,0,0-.306-.057.753.753,0,0,0-.639.4,2.2,2.2,0,0,1-1.925,1.138C951.706,555.527,950.836,555.531,949.965,555.531Zm-1.831-16.877c-.076,0-.152.005-.232.009l-.548.027v15.9h4.989a1.423,1.423,0,0,0,1.561-1.562q0-6.4,0-12.8a1.423,1.423,0,0,0-1.585-1.569h-4.185Zm14.654-7.548c-.075,0-.149,0-.225.01l-.33.028-.121.46c-.027.1-.053.193-.073.288a13.462,13.462,0,0,1-2.821,5.9,7.138,7.138,0,0,1-3.837,2.612.668.668,0,0,0-.54.729v1.705q0,4.7-.006,9.41a.77.77,0,0,0,.583.793c.576.187,1.151.38,1.726.572.5.167,1,.335,1.5.5a8.834,8.834,0,0,0,2.781.473l4.413,0H969.3a1.405,1.405,0,1,0,.123-2.808c-.256-.025-.527-.164-.518-.483s.294-.454.557-.456h1.687a1.408,1.408,0,1,0,.012-2.81l-.484,0h-1.2c-.274,0-.566-.125-.568-.466s.288-.467.56-.469c.157,0,.853,0,.853,0h.834a1.408,1.408,0,1,0,.005-2.81c-.174,0-1.294,0-1.294,0H969.5c-.178,0-.594-.048-.6-.468s.415-.467.594-.468l1.045,0c.249,0,.5,0,.746-.009a1.388,1.388,0,0,0,1.359-1.353,1.414,1.414,0,0,0-1.259-1.442,2.2,2.2,0,0,0-.243-.011H962a.668.668,0,0,1-.475-.159.417.417,0,0,1-.115-.31c0-.42.416-.467.595-.467h2.06l.154-.307a1.18,1.18,0,0,0,.076-.164,15.157,15.157,0,0,0,.836-5.89A2.273,2.273,0,0,0,962.788,531.106Z" fill="#009688"/>
    <path id="Trazado_1389" data-name="Trazado 1389" d="M968.4,529.271a.494.494,0,0,1-.345-.149.426.426,0,0,1-.052-.576c.512-.561,1.057-1.08,1.475-1.47a1.124,1.124,0,0,1,.18-.069l.078-.026a.487.487,0,0,1,.385.276.366.366,0,0,1-.007.44c-.514.562-1,1.05-1.489,1.492A.328.328,0,0,1,968.4,529.271Z" fill="#009688"/>
    <path id="Trazado_1390" data-name="Trazado 1390" d="M959.094,529.271a.49.49,0,0,0,.344-.149.425.425,0,0,0,.052-.576c-.511-.561-1.057-1.08-1.475-1.47a1.107,1.107,0,0,0-.179-.069l-.078-.026a.489.489,0,0,0-.386.276.366.366,0,0,0,.008.44c.513.562,1,1.05,1.489,1.492A.326.326,0,0,0,959.094,529.271Z" fill="#009688"/>
    <path id="Trazado_1391" data-name="Trazado 1391" d="M950.62,551.774a.477.477,0,0,1-.463-.47.475.475,0,0,1,.467-.463.475.475,0,0,1,.466.47.475.475,0,0,1-.466.463Z" fill="#009688"/>
  </g>
</svg>
