<svg xmlns="http://www.w3.org/2000/svg" viewBox="0 0 95.95 95.95"><defs><style>.cls-1{fill:none;}.cls-2{fill:#009688;}</style></defs><title>smartphone</title><g id="Capa_2" data-name="Capa 2"><g id="Capa_1-2" data-name="Capa 1"><g id="smartphone"><rect class="cls-1" width="95.95" height="95.95"/><path class="cls-2" d="M75.89,10.83a9,9,0,0,0-9.42-9.32h-37A9.24,9.24,0,0,0,28,1.59a9,9,0,0,0-7.9,9.28v2.34h0v3h0V75.6h0v3h0V85a9,9,0,0,0,9.42,9.42H66.41c5.56,0,9.48-3.83,9.48-9.36Q75.92,48,75.89,10.83ZM24.36,13.21H22.93a30.38,30.38,0,0,1,.43-4.42A5.73,5.73,0,0,1,29,4.52q19,0,38,0a5.87,5.87,0,0,1,5.9,5.4,11.38,11.38,0,0,1,.06,1.31v2H24.36Zm-1.31,4.2V16.22H72.89V75.6H23.05ZM72.73,86.53c-.25,2.8-2.84,4.84-5.84,4.91-1.77,0-3.55,0-5.33,0H29.77c-4.32,0-6.72-2.41-6.72-6.71V78.6H72.67c.09.1.16.14.16.19C72.82,81.37,73,84,72.73,86.53Z"/><path class="cls-2" d="M48,80.44a4.58,4.58,0,1,0,4.54,4.63A4.58,4.58,0,0,0,48,80.44ZM48,86.6a1.59,1.59,0,0,1,0-3.17,1.59,1.59,0,1,1,0,3.17Z"/><path class="cls-2" d="M55.93,7.35c-2,0-4.1,0-6.16,0H40.25c-.84,0-1.56.19-1.83,1.1A1.46,1.46,0,0,0,40,10.33c2.68,0,5.36,0,8,0h0c2.61,0,5.23,0,7.84,0a2.2,2.2,0,0,0,1.54-.76C58.05,8.56,57.25,7.37,55.93,7.35Z"/></g></g></g></svg>