<svg xmlns="http://www.w3.org/2000/svg" viewBox="0 0 95.95 95.95"><defs><style>.cls-1{fill:none;}.cls-2{fill:#009688;}</style></defs><title>bombillo</title><g id="Capa_2" data-name="Capa 2"><g id="Capa_1-2" data-name="Capa 1"><g id="bombillo"><rect class="cls-1" width="95.95" height="95.95"/><path class="cls-2" d="M42.58,95.48a5.75,5.75,0,0,1-6-5,12,12,0,0,1-.17-2.08c0-.46,0-.92,0-1.38,0-1.84,0-3.75,0-5.61a14.25,14.25,0,0,0-5.61-11.94,27.57,27.57,0,0,1,17.38-49,27.14,27.14,0,0,1,26.92,23c1.67,10.39-1.56,19-9.59,25.63a15.14,15.14,0,0,0-5.93,12.58c0,2.06,0,4.17,0,6.21,0,.57,0,1.15,0,1.73a5.77,5.77,0,0,1-6,5.91h-11ZM39.74,83.94c0,.61,0,1.22,0,1.83,0,1.4,0,2.86,0,4.28a2.09,2.09,0,0,0,2.14,2.18l6.17,0c2,0,4,0,6,0a2.1,2.1,0,0,0,2.25-2.17c.05-1.42,0-2.81,0-4.29,0-.6,0-1.21,0-1.83v-.37H39.74Zm8.38-60.26a25.76,25.76,0,0,0-4.28.36A24.7,24.7,0,0,0,24.33,53.53a23.19,23.19,0,0,0,8.45,13.36,17.13,17.13,0,0,1,6.31,9.39c.2.79.32,1.6.45,2.46.06.39.12.79.19,1.19l.06.31H56.24l0-.31c.05-.28.08-.55.12-.82.08-.54.16-1.06.27-1.56.93-4.28,3.29-8,7.21-11.41,7-6.08,9.68-13.81,7.89-23A23.87,23.87,0,0,0,48.12,23.68Z"/><path class="cls-2" d="M48.35,30.4a17.55,17.55,0,0,1,12.17,5.26,17,17,0,0,1,5,12.05c0,1.15-.6,1.89-1.54,1.89a2.17,2.17,0,0,1-.64-.1c-.71-.23-1-.73-1-1.68a14.14,14.14,0,0,0-3.51-9.11A14.42,14.42,0,0,0,48,33.61,1.51,1.51,0,0,1,46.35,32,1.55,1.55,0,0,1,48,30.4h.31"/><rect class="cls-2" x="0.47" y="46.26" width="11.22" height="3.35" rx="1.67"/><rect class="cls-2" x="42.33" y="4.4" width="11.22" height="3.35" rx="1.67" transform="translate(54.02 -41.86) rotate(90)"/><rect class="cls-2" x="84.27" y="46.26" width="11.22" height="3.35" rx="1.67"/><rect class="cls-2" x="12.74" y="16.63" width="11.22" height="3.35" rx="1.67" transform="translate(18.31 -7.61) rotate(45)"/><rect class="cls-2" x="71.99" y="75.88" width="11.22" height="3.35" rx="1.67" transform="translate(77.57 -32.16) rotate(45)"/><rect class="cls-2" x="12.74" y="75.88" width="11.22" height="3.35" rx="1.67" transform="translate(-49.47 35.69) rotate(-45)"/><rect class="cls-2" x="71.99" y="16.63" width="11.22" height="3.35" rx="1.67" transform="translate(9.79 60.23) rotate(-45)"/></g></g></g></svg>