<svg xmlns="http://www.w3.org/2000/svg" viewBox="0 0 95.95 95.95"><defs><style>.cls-1{fill:none;}.cls-2{fill:#009688;}</style></defs><title>panel_solar</title><g id="Capa_2" data-name="Capa 2"><g id="Capa_1-2" data-name="Capa 1"><g id="panel_solar"><rect class="cls-1" width="95.95" height="95.95"/><path class="cls-2" d="M39,80.9v-3H8.22c-1.85,0-2.38-.62-2-2.41l8.7-40.64c.34-1.62.66-1.86,2.36-1.86H48A13.46,13.46,0,1,1,74.8,33H79c1.25,0,1.66.33,1.93,1.56q4.29,19.95,8.57,39.9c.1.49.22,1,.31,1.46a1.54,1.54,0,0,1-1.61,2c-.25,0-.5,0-.75,0H57v2.93a26.17,26.17,0,0,1,2.69.2,7.44,7.44,0,0,1,6.2,6.59c.18,1.61-.39,2.25-2,2.25H32.07c-1.67,0-2.24-.65-2-2.32A7.53,7.53,0,0,1,37.5,80.9ZM31.05,48c-5.21,0-10.25,0-15.3,0-.57,0-.64.3-.73.73-.47,2.26-1,4.5-1.45,6.76C13,57.91,12.52,60.37,12,62.89H28.92ZM64.87,48,67,62.9H83.94Q82.34,55.4,80.75,48ZM51.16,32.92H71.72c.8-3.63-1.19-8-4.6-10.2A10.46,10.46,0,0,0,55.27,23C52.09,25.37,50.28,29.74,51.16,32.92ZM34.07,48,32,62.89H46.4V48ZM64,62.9c-.71-5-1.42-9.94-2.12-14.87H49.52V62.9ZM28.48,66H11.31L9.42,74.87H27.21C27.63,71.92,28.05,69,28.48,66ZM68.7,74.82H86.5L84.6,66H67.44Zm-38.46.05H46.41V66H31.51ZM64.41,66H49.53v8.86H65.68C65.25,71.88,64.84,69,64.41,66ZM31.49,44.94l1.26-8.89h-15l-1.9,8.89Zm48.6,0L78.18,36h-15l1.27,8.9Zm-45.58,0H46.42V36H35.79Zm15,0H61.4L60.13,36H49.5ZM33.41,86.84h29.1a4.12,4.12,0,0,0-4.09-2.93c-2.64,0-5.29,0-7.94,0-4.3,0-8.6,0-12.89,0A4.15,4.15,0,0,0,33.41,86.84Zm8.6-6H53.89V78H42Z"/><path class="cls-2" d="M62.92,10.63c0,.93,0,1.87,0,2.8A1.51,1.51,0,0,1,61.45,15a1.49,1.49,0,0,1-1.51-1.57c0-1.93,0-3.87,0-5.8a1.48,1.48,0,0,1,1.47-1.6,1.51,1.51,0,0,1,1.51,1.66C62.94,8.69,62.92,9.66,62.92,10.63Z"/><path class="cls-2" d="M84.8,25.7a1.53,1.53,0,0,1,1.64,1.22,1.38,1.38,0,0,1-1,1.68c-2.07.44-4.15.84-6.24,1.15a1.47,1.47,0,0,1-.55-2.87C80.71,26.42,82.8,26.08,84.8,25.7Z"/><path class="cls-2" d="M50.59,19a1.59,1.59,0,0,1-2.1,0l-.18-.16q-1.89-2.07-3.72-4.2a1.5,1.5,0,1,1,2.23-2c1.27,1.41,2.57,2.81,3.74,4.3a2.14,2.14,0,0,1,.25,1.7A.66.66,0,0,1,50.59,19Z"/><path class="cls-2" d="M73.74,18.94A1.53,1.53,0,0,1,72,18.79a1.17,1.17,0,0,1-.33-.41,1.69,1.69,0,0,1,.07-1.46c1.26-1.66,2.61-3.25,4-4.83a1.42,1.42,0,0,1,2.41.53,1.65,1.65,0,0,1-.31,1.52c-1.26,1.58-2.57,3.12-3.9,4.65A.63.63,0,0,1,73.74,18.94Z"/><path class="cls-2" d="M43.28,30.23c-1.78-.27-3.77-.56-5.76-.91a1.42,1.42,0,0,1-1.23-1.68A1.39,1.39,0,0,1,38,26.42q3,.39,6,.91a1.44,1.44,0,0,1,1.2,1.72C45,29.8,44.37,30.27,43.28,30.23Z"/></g></g></g></svg>