<svg xmlns="http://www.w3.org/2000/svg" viewBox="0 0 95.95 95.95"><defs><style>.cls-1{fill:none;}.cls-2{fill:#009688;}</style></defs><title>tostador</title><g id="Capa_2" data-name="Capa 2"><g id="Capa_1-2" data-name="Capa 1"><g id="tostador"><rect class="cls-1" width="95.95" height="95.95"/><path class="cls-2" d="M60.6,13.24a4.68,4.68,0,0,1,3.07,2.24,4.26,4.26,0,0,1-3.42,6.3c-1.63.13-2.57,1-2.55,2.32a2.22,2.22,0,0,0,1.95,2.17c.47.07,1,.09,1.2.61a1,1,0,0,1-1,1.45,4.27,4.27,0,0,1-.73-8.46c.29-.05.58-.08.87-.11a2.24,2.24,0,0,0,0-4.48c-.91-.12-1.32-.57-1.1-1.31a3,3,0,0,1,.53-.73Z"/><path class="cls-2" d="M37.67,13.24a4.64,4.64,0,0,1,3.2,2.38,4.28,4.28,0,0,1-3.39,6.16,6,6,0,0,0-.94.12,2.23,2.23,0,0,0,.17,4.37l.47.07a.94.94,0,0,1,.88,1.08c0,.6-.45.91-1.13.91a4.32,4.32,0,0,1-3.87-2.72,4.27,4.27,0,0,1,3.42-5.77l.67-.08a2.24,2.24,0,0,0,.05-4.47c-.86-.12-1.29-.51-1.12-1.17.08-.33.42-.59.64-.88Z"/><path class="cls-2" d="M49.2,13.24a4.87,4.87,0,0,1,3,2.27,4.3,4.3,0,0,1-3.41,6.29,3.69,3.69,0,0,0-1.65.49,2,2,0,0,0-.88,2.24,2.21,2.21,0,0,0,1.86,1.74l.47.07a1,1,0,0,1-.22,2,4.26,4.26,0,0,1-2.83-7.4,4.79,4.79,0,0,1,3-1.18,2.23,2.23,0,0,0,.12-4.45c-.52-.07-1-.16-1.14-.76a1.14,1.14,0,0,1,.59-1.3Z"/><path class="cls-2" d="M75.54,62a2.94,2.94,0,1,1-2.92-3A3,3,0,0,1,75.54,62Zm-2.05,0a.88.88,0,0,0-.92-.87.89.89,0,0,0-.87.93.9.9,0,1,0,1.79-.06Z"/><path class="cls-2" d="M71.58,52.59c0-.61,0-1.22,0-1.83a1,1,0,1,1,2,0c0,1.24,0,2.48,0,3.73a1,1,0,0,1-1,1.05c-.62,0-1-.4-1-1.1S71.58,53.2,71.58,52.59Z"/><path class="cls-2" d="M63.49,38.9V41H32.28V38.9H63.49m.64-1.66H31.63a1,1,0,0,0-1,1v3.39a1,1,0,0,0,1,1h32.5a1,1,0,0,0,1-1V38.26a1,1,0,0,0-1-1Z"/><path class="cls-2" d="M81.07,49.14A16.91,16.91,0,0,0,64.16,32.22H31.8A16.91,16.91,0,0,0,14.88,49.14V79H19.6V81.7a1,1,0,0,0,1,1h12a1,1,0,0,0,1-1V79h27V81.7a1,1,0,0,0,1,1h12a1,1,0,0,0,1-1V79h6.44ZM31.58,80.68H21.64V79.34h9.94Zm41,0H62.65V79.34h9.94Zm5.16-5.06H18.2V49.14a13.61,13.61,0,0,1,13.6-13.6H64.16a13.61,13.61,0,0,1,13.59,13.6Z"/></g></g></g></svg>