<svg xmlns="http://www.w3.org/2000/svg" width="32" height="32" viewBox="0 0 32 32">
  <g id="icono_ventaja_2_32x32" transform="translate(-890.576 -524)">
    <rect id="Rectángulo_10781" data-name="Rectángulo 10781" width="32" height="32" transform="translate(922.576 556) rotate(180)" fill="none"/>
    <path id="Trazado_1386" data-name="Trazado 1386" d="M920.408,555.909a2,2,0,0,0,2.075-2.146c-.012-.379-.033-.758-.053-1.137l-.026-.482-.354-7.037-.006-.155c0-.073-.005-.145-.01-.218a1.547,1.547,0,0,0-1.359-1.6l-.057-.014.1-.4c.061-.252.123-.5.178-.758a1.98,1.98,0,0,0-1.45-2.352,2.092,2.092,0,0,0-.519-.066A1.986,1.986,0,0,0,917,541.079c-.269,1.042-.529,2.087-.788,3.132l-.3,1.21q-.474,1.89-.943,3.782a2.01,2.01,0,0,0,1.4,2.518,2.114,2.114,0,0,0,.531.069,2.013,2.013,0,0,0,1.943-1.582c.015-.054.03-.108.046-.162a2.875,2.875,0,0,0,.1-.434c.035-.284.162-.4.438-.4h.044c.247.01.494.012.743.012l1.12-.005.028.434c.018.283.036.56.05.838q.082,1.65.156,3.3a1.158,1.158,0,0,1-.292.876,1.085,1.085,0,0,1-.806.319q-1.177.006-2.358.005l-3.66,0a.444.444,0,0,1-.078-.009l-.12-.02v-.322c0-.2,0-.407,0-.612a.984.984,0,0,0-1.079-1.09q-.977,0-1.953,0-1.16,0-2.319.006h0a.4.4,0,0,1-.449-.313,2.327,2.327,0,0,0-2.142-1.717c-.5-.032-1.035-.046-1.74-.046-.284,0-.567,0-.851.005s-.568,0-.852,0h-.075a2.824,2.824,0,0,1-2.451-1.232,3.191,3.191,0,0,1-.481-1.092,4.229,4.229,0,0,0-1.426-2.446.366.366,0,0,1-.143-.241c-.009-.3-.008-.6-.007-.907v-.375l.056,0a3.068,3.068,0,0,0,1.866-.657,2.868,2.868,0,0,0,1.145-2.2c.017-.5.013-.989.009-1.508,0-.232,0-.466,0-.7v-.058h.058a1.9,1.9,0,0,0,1.643-.533l.027-.036.042.018a.629.629,0,0,1,.427.669c-.016.77-.027,1.522.024,2.269a3.016,3.016,0,0,0,6.008-.014c.041-.625.034-1.263.028-1.881l0-.453a.559.559,0,0,1,.24-.491l.536-.419c.573-.446,1.167-.908,1.719-1.395a7.419,7.419,0,0,0-3.494-12.975c-.139-.029-.279-.055-.419-.08l-.188-.035h-2.859l-.2.038c-.153.029-.307.058-.461.083a7.454,7.454,0,0,0-6.08,7.059c-.005.334,0,.668,0,1.013v.561l-.968,0-.554,0a6.2,6.2,0,0,0-6,4.585c-.058.215-.1.434-.149.653-.021.1-.043.206-.066.308l0,1.236.017.047a1.008,1.008,0,0,1,.038.153,6.128,6.128,0,0,0,1,2.66,6.7,6.7,0,0,0,2.83,2.32.455.455,0,0,1,.222.34c.005.116-.166.243-.259.278a4.037,4.037,0,0,0-1.677,1.151,8.478,8.478,0,0,0-1.791,3.287c-.112.406-.191.83-.267,1.24-.036.192-.072.383-.11.574v4.234h8.115v-2.538l.09.057a7.771,7.771,0,0,0,2.723,1.181c.66.117,1.315.188,2.008.263.3.032.606.065.912.1l.039.005.01.038c.188.7.456.892,1.249.892h14.594Zm-25.058-7.461c.01.048.018.086.029.124a8.61,8.61,0,0,0,2.266,3.848l.029.029c.092.089.2.189.2.3.014.544.013,1.076.011,1.64v.58H891.6v-.059c0-.312,0-.622-.006-.93-.006-.664-.013-1.351.013-2.021a7.655,7.655,0,0,1,1.851-4.7,2.955,2.955,0,0,1,2.332-1.145,3.673,3.673,0,0,1,.864.109,2.911,2.911,0,0,1,2.262,2.361,3.877,3.877,0,0,0,4.025,3.208h1.623v2.146l-.052.006a6.822,6.822,0,0,1-.75.04,8.034,8.034,0,0,1-3.867-1.012,7.735,7.735,0,0,1-3.683-4.779l-.868.219Zm17.951,6.518h-7.8v-1.1h7.8Zm-7.414-3.17a1.5,1.5,0,0,1,1.637,1.048l.019.073h-2.035v-1.1l.053,0A3.06,3.06,0,0,1,905.887,551.8Zm13.042-11.34a1.162,1.162,0,0,1,.347.054,1.113,1.113,0,0,1,.69,1.433c-.357,1.429-1.453,5.8-1.453,5.8q-.087.346-.172.694c-.134.546-.272,1.11-.424,1.661a1.029,1.029,0,0,1-1.031.772,1.308,1.308,0,0,1-.2-.015,1.093,1.093,0,0,1-.891-1.14l.009-.058c.01-.063.025-.159.048-.252q.617-2.478,1.235-4.954l.191-.766c.2-.782.389-1.564.59-2.344A1.1,1.1,0,0,1,918.929,540.456Zm1.68,3.6a.432.432,0,0,1,.3.162.811.811,0,0,1,.2.477c.042.635.072,1.271.1,1.906l.037.773c.009.181.02.361.031.546l.021.361h-1.957l.035-.173c.013-.065.025-.126.04-.185l.884-3.533C920.35,544.178,920.463,544.056,920.609,544.056Zm-23.253,1.349-1.662-.25v-4.586h-.544c-.117,0-.232,0-.347,0-.4-.007-.637-.218-.639-.564a.566.566,0,0,1,.633-.571c.121,0,.242,0,.362,0h.513l.01-.018.017-.4c0-.151,0-.3.007-.454.011-.478.211-.674.69-.675h3.337c.527,0,.724.2.724.741q0,1.387,0,2.775a2.135,2.135,0,0,1-2.266,2.266h-.835Zm.915-8.442q-.969,0-1.937.006a1.451,1.451,0,0,0-1.424.915,1.959,1.959,0,0,0-.111.374c-.014.062-.029.124-.045.185l-.009.033-.034.009c-.98.227-1.47.724-1.456,1.477a1.91,1.91,0,0,0,.266.875,1.432,1.432,0,0,0,1.2.667l.052,0v2.33l-.136-.034a.3.3,0,0,1-.078-.025,5.057,5.057,0,0,1-2.96-4.884,4.985,4.985,0,0,1,3.276-4.734,6.483,6.483,0,0,1,2.5-.481,9.033,9.033,0,0,1,2.193.29,4.065,4.065,0,0,1,2.943,3.853c0,.385-.166.628-.46.667a1.92,1.92,0,0,1-.24.014c-.063,0-.126,0-.189,0s-.121,0-.18,0H901.4l-.009-.048c-.187-1-.684-1.47-1.563-1.479Q899.049,536.963,898.271,536.963Zm10.4,4.6a1.855,1.855,0,0,1-.512,1.393,2.1,2.1,0,0,1-3.139.014,1.89,1.89,0,0,1-.527-1.406l0-.055h4.169Zm.014-1.013h-4.2v-1.1h4.2Zm-2.342-15.6a14.23,14.23,0,0,1,1.77.121,6.127,6.127,0,0,1,5.433,4.537,6.227,6.227,0,0,1-1.976,6.827c-.6.539-1.251,1.042-1.879,1.528l-.527.41a.851.851,0,0,1-.316.128c-.055.014-.112.029-.171.049l-.077.026V532.7h.059c.139,0,.276,0,.413.005s.266.005.4.005c.169,0,.336,0,.5-.017a1.755,1.755,0,0,0,1.112-.554,1.914,1.914,0,0,0,.563-1.113,2,2,0,0,0-1.5-2.247,2.141,2.141,0,0,0-.489-.059,1.916,1.916,0,0,0-.947.252,2.074,2.074,0,0,0-1.055,1.978V531l-.165.043-.939-1.018-1.018,1.162-.035-.4c-.011-.131-.019-.234-.031-.336a2,2,0,0,0-1.946-1.732c-.052,0-.1,0-.157.007a2,2,0,0,0-1.871,2.071,1.984,1.984,0,0,0,2.03,1.918h.051c.206,0,.409-.025.625-.047.1-.011.2-.021.3-.03l.063-.005v5.85l-.105.005a1.126,1.126,0,0,1-1.046-.856,5.064,5.064,0,0,0-3.661-4.575.428.428,0,0,1-.341-.38,6.554,6.554,0,0,1,4.348-7.344A8.041,8.041,0,0,1,906.338,524.949Zm.284,6.509c.075.057.149.118.224.178a6.565,6.565,0,0,0,.55.413.524.524,0,0,1,.277.495c-.007,1.429-.006,2.859-.006,4.288v1.662h-2.134l-.023-.088a.356.356,0,0,1-.019-.1q0-2.943,0-5.885a.365.365,0,0,1,.111-.259c.232-.181.469-.355.708-.531l.276-.2Zm-3.142-1.816a1.079,1.079,0,0,1,1.075.88,1.975,1.975,0,0,1,.025.351c0,.051,0,.1.005.154-.008.636-.033.664-.665.753a2.92,2.92,0,0,1-.4.036c-.035,0-.071,0-.106,0a1.087,1.087,0,0,1-.069-2.162A1.3,1.3,0,0,1,903.48,529.642Zm6.179,0a1.087,1.087,0,0,1,1.085.907,1.068,1.068,0,0,1-.811,1.219,1.475,1.475,0,0,1-.332.033,3,3,0,0,1-.365-.025c-.633-.08-.658-.108-.654-.746l0-.119a2.549,2.549,0,0,1,0-.262,1.082,1.082,0,0,1,1.035-1.006Z" fill="#009688"/>
  </g>
</svg>
