<svg xmlns="http://www.w3.org/2000/svg" viewBox="0 0 95.95 95.95"><defs><style>.cls-1{fill:none;}.cls-2{fill:#009688;}</style></defs><title>monitor</title><g id="Capa_2" data-name="Capa 2"><g id="Capa_1-2" data-name="Capa 1"><g id="monitor"><rect class="cls-1" width="95.95" height="95.95"/><path id="monitor-2" data-name="monitor" class="cls-2" d="M36.9,75.11V67.58H10.76c-4,0-6.36-2.35-6.36-6.4q0-23.24,0-46.47c0-3.94,2.33-6.3,6.25-6.3H85.27c3.93,0,6.29,2.35,6.29,6.27V61.34c0,3.85-2.39,6.24-6.25,6.24H59.08v7.53H69.3c4.56,0,7.31,2.78,7.32,7.36,0,1.15,0,2.3,0,3.46a1.48,1.48,0,0,1-1.55,1.61c-.22,0-.44,0-.65,0H21.58a6.26,6.26,0,0,1-.75,0A1.46,1.46,0,0,1,19.34,86c0-1.37,0-2.75,0-4.12a6.7,6.7,0,0,1,6.72-6.72c3.24,0,6.48,0,9.72,0Zm-29.51-20H88.56V14.79c0-2.4-1-3.39-3.41-3.39H10.81c-2.43,0-3.42,1-3.42,3.39V55.06Zm81.17,3.13H7.39v2.86c0,2.58,1,3.54,3.55,3.54H85c.31,0,.62,0,.93,0A2.74,2.74,0,0,0,88.54,62C88.6,60.76,88.56,59.52,88.56,58.19ZM22.35,84.49H73.62c0-.68,0-1.3,0-1.92.25-3.07-2-4.51-4.44-4.5-14.14.07-28.28,0-42.43,0-.31,0-.62,0-.93,0a3.68,3.68,0,0,0-3.46,3.23C22.28,82.37,22.35,83.4,22.35,84.49ZM56,67.65H40V75H56Z"/></g></g></g></svg>