<svg xmlns="http://www.w3.org/2000/svg" width="32" height="32" viewBox="0 0 32 32">
  <g id="icono_ventaja_3_32x32" transform="translate(-997.424 -524)">
    <rect id="Rectángulo_10783" data-name="Rectángulo 10783" width="32" height="32" transform="translate(997.424 524)" fill="none"/>
    <g id="Grupo_21725" data-name="Grupo 21725">
      <path id="Trazado_1392" data-name="Trazado 1392" d="M1001.99,555.436v-3.708a3.44,3.44,0,0,0-.458-.155,5.778,5.778,0,0,1-.879-.3,4.293,4.293,0,0,1-2.655-3.94c-.044-1.06-.032-2.14-.02-3.185,0-.3.007-.6.009-.9a1.718,1.718,0,0,1,3.435-.011c.008.7.006,1.4.005,2.105q0,.68,0,1.358a1.524,1.524,0,0,0,1.584,1.588l.05,0-.027-.042a2.989,2.989,0,0,1,1.411-4.547l.016-9.932-.049-.012-.077.154c-.042.084-.074.147-.1.211l-.635,1.38q-.678,1.476-1.362,2.947a1.739,1.739,0,0,1-1.564,1.043,1.669,1.669,0,0,1-1.251-.578,1.552,1.552,0,0,1-.3-1.773l.223-.492c.706-1.56,1.437-3.173,2.222-4.724a4.222,4.222,0,0,1,3.357-2.319c.053-.007.1-.017.167-.029l.161-.029-.027-.033a2.984,2.984,0,0,1-.682-2.611,2.968,2.968,0,0,1,4.573-1.825c1.265.869,1.54,2.165.864,4.079l-.021.059.057-.028a3.31,3.31,0,0,0,1.512-1.435c.2-.383.4-.771.59-1.158s.384-.767.584-1.146a1.563,1.563,0,0,1,1.449-.885c.038,0,.076,0,.115,0a1.656,1.656,0,0,1,1.489,1.022,1.617,1.617,0,0,1,0,1.37l-.252.568c-.319.72-.649,1.464-1.012,2.175a6.023,6.023,0,0,1-3.792,3.127l-.271.083-.019.43q0,.461,0,.923c0,.153-.011.312-.023.47a2.382,2.382,0,0,0,.072,1.052,2.472,2.472,0,0,0,.726.835c.107.092.213.184.311.279a2.7,2.7,0,0,1,.862,1.479l.007.038.139-.091c.067-.044.126-.082.184-.124l1.122-.808q1.867-1.346,3.74-2.684a.92.92,0,0,1,.493-.16q1.594-.011,3.188-.008h2.684l.009-.124c.006-.067.011-.128.011-.19v-1.343c0-1.071,0-2.141.008-3.212a.367.367,0,0,0-.3-.414q-2.5-.824-5-1.66l-1.414-.471-.229-.08.907-.335,1.505-.546c1.263-.456,2.568-.928,3.845-1.414a3.523,3.523,0,0,1,1.291-.193c.107,0,.215,0,.326,0v9.975h3.989v.951h-4.525q-2.911,0-5.821-.005h0a1.251,1.251,0,0,0-.786.249q-4.213,3.045-8.434,6.082l-2.365,1.7c-.054.038-.107.079-.169.126l-.141.107.036.019a3.062,3.062,0,0,1,1.652,1.957,2.969,2.969,0,0,1-.448,2.508l-.025.04h.047a1.512,1.512,0,0,0,1.58-1.53c0-.537,0-1.074,0-1.611,0-.638,0-1.276.005-1.914a1.721,1.721,0,0,1,1.475-1.674,1.6,1.6,0,0,1,.248-.019,1.713,1.713,0,0,1,1.609,1.16,2.146,2.146,0,0,1,.1.664c.009,1.141.01,2.376,0,3.775a4.485,4.485,0,0,1-3.68,4.467c-.061.012-.122.027-.187.043l-.1.023-.02,3.775ZM999.7,542.483a.791.791,0,0,0-.772.869l0,.954c0,.955-.008,1.943.007,2.915a3.456,3.456,0,0,0,1.582,2.912,4.7,4.7,0,0,0,1.962.651l.2.035c.216.039.254.117.252.32-.007.816-.006,1.633-.005,2.458v.9h5.042v-.9c0-.825,0-1.641-.005-2.457,0-.205.033-.3.251-.318a6.857,6.857,0,0,0,.774-.143l.177-.039a3.5,3.5,0,0,0,2.781-3.231c.031-1.026.023-2.07.017-3.08q0-.534-.006-1.07a.738.738,0,0,0-.468-.71.77.77,0,0,0-.316-.069.792.792,0,0,0-.759.829c0,.542,0,1.085,0,1.627,0,.612,0,1.224,0,1.836a2.39,2.39,0,0,1-1.938,2.387,24.072,24.072,0,0,1-2.622.3c-.19.014-.379.02-.568.02a17.253,17.253,0,0,1-2.481-.241l-.045-.007a2.5,2.5,0,0,1-2.273-2.587c0-.49,0-.98,0-1.47,0-.612,0-1.224,0-1.837a.787.787,0,0,0-.762-.858Zm5.742,2a2.02,2.02,0,0,0-1.44,3.439,2,2,0,0,0,1.417.6h0a2.021,2.021,0,0,0,1.453-3.447,2.008,2.008,0,0,0-1.426-.6Zm-.017-1.048.432-.312c.3-.221.6-.43.89-.632a.46.46,0,0,0,.221-.43c-.006-1.2-.005-2.394-.005-3.591V537.04l.541,0c.122,0,.242,0,.361-.008l.042,0a.55.55,0,0,1,.425.2l.167.176a11.206,11.206,0,0,0,.919.9,1.2,1.2,0,0,1,.493,1.187,2.139,2.139,0,0,0-.01.418c0,.067,0,.135,0,.205v.04l.1-.045a.237.237,0,0,0,.048-.024q.495-.353.988-.708c.464-.333.524-.528.317-1.042a2.038,2.038,0,0,0-.409-.626c-.424-.454-.875-.9-1.3-1.3a.578.578,0,0,1-.2-.468c.008-.614.007-1.229.006-1.844v-1.975l.028,0a.276.276,0,0,1,.034-.014c.1-.021.2-.04.306-.058a5.15,5.15,0,0,0,3.892-2.931c.326-.667.634-1.357.931-2.024l.2-.44a.882.882,0,0,0,.041-.676.73.73,0,0,0-.4-.411.794.794,0,0,0-.316-.071.812.812,0,0,0-.709.513c-.121.241-.241.484-.361.725-.207.419-.415.838-.631,1.251a4.395,4.395,0,0,1-4.076,2.5c-.33.005-.66.006-.991.006l-1.752,0a3.521,3.521,0,0,0-3.413,2.164q-.866,1.842-1.722,3.686l-.438.943a2.016,2.016,0,0,0-.12.291.742.742,0,0,0,.44.9.772.772,0,0,0,.289.058.721.721,0,0,0,.627-.376,2.646,2.646,0,0,0,.117-.239l.572-1.243q1.014-2.2,2.033-4.4c.047-.1.146-.217.212-.221.183-.012.367-.015.555-.015l.621,0Zm2.493-1.8.288-.206c.23-.164.441-.315.65-.469a.214.214,0,0,0,.1-.139c.006-.519,0-1.039,0-1.558a.155.155,0,0,0-.046-.1c-.243-.246-.946-.953-.946-.953l-.044-.043Zm-.483-16.128a2.019,2.019,0,0,0-1.433,3.442,2,2,0,0,0,1.421.6,2.028,2.028,0,0,0,2.035-2.016,2.028,2.028,0,0,0-2.022-2.028Zm12.425,1.5,4.058,1.354v-2.831Z" fill="#009688"/>
      <path id="Trazado_1393" data-name="Trazado 1393" d="M1017.955,555.439v-3.674a5.337,5.337,0,0,0-.588-.228,6.571,6.571,0,0,1-1.137-.469,4.246,4.246,0,0,1-2.266-3.775c-.034-1.137-.023-2.294-.013-3.414l.006-.64a1.718,1.718,0,0,1,3.435,0c.007.687.006,1.374,0,2.061,0,.467,0,.935,0,1.4a1.513,1.513,0,0,0,1.568,1.578l.044,0-.02-.04a3.027,3.027,0,0,1,.545-4.038,2.961,2.961,0,0,1,3.738-.019,3.019,3.019,0,0,1,.581,4.035l-.017.034.038,0a1.114,1.114,0,0,0,.129.007,1.477,1.477,0,0,0,1.427-1.5c.005-.564,0-1.128,0-1.693,0-.621,0-1.242,0-1.863a1.7,1.7,0,0,1,1.247-1.61,1.816,1.816,0,0,1,.48-.065,1.629,1.629,0,0,1,1.433.81,2.146,2.146,0,0,1,.266.959c.029,1.268.02,2.559.011,3.806v.061a4.459,4.459,0,0,1-3.659,4.422c-.066.013-.131.029-.2.045l-.111.027-.02,1.91v1.865Zm-2.284-12.956a.8.8,0,0,0-.77.9v.6c0,1.059,0,2.119,0,3.178a3.518,3.518,0,0,0,2.852,3.494c.255.053.511.1.772.155l.4.079-.02,3.619h5.032v-1.185c0-.725,0-1.45-.007-2.174,0-.228.06-.3.281-.325a6.7,6.7,0,0,0,.735-.137l.184-.041a3.5,3.5,0,0,0,2.784-3.228c.031-1.017.024-2.051.017-3.052q0-.549-.006-1.1a.737.737,0,0,0-.466-.712.757.757,0,0,0-.317-.07.791.791,0,0,0-.76.826c0,.583,0,1.165,0,1.747,0,.562,0,1.123,0,1.685a2.4,2.4,0,0,1-2,2.435,25.367,25.367,0,0,1-2.623.291c-.181.013-.361.019-.541.019a16.42,16.42,0,0,1-2.359-.229l-.132-.019a2.5,2.5,0,0,1-2.276-2.584c0-.53,0-2.713,0-3.276a.791.791,0,0,0-.761-.892Zm5.748,2a2.02,2.02,0,0,0-1.439,3.444,2,2,0,0,0,1.423.6,2.022,2.022,0,0,0,.037-4.044Z" fill="#009688"/>
      <rect id="Rectángulo_10784" data-name="Rectángulo 10784" width="0.917" height="0.912" transform="translate(1018.956 536.561)" fill="#009688"/>
      <rect id="Rectángulo_10785" data-name="Rectángulo 10785" width="0.897" height="0.919" transform="translate(1020.966 536.547)" fill="#009688"/>
      <path id="Trazado_1394" data-name="Trazado 1394" d="M1022.937,537.466v-.772c0-.031,0-.062.006-.1l0-.051h.912v.925Z" fill="#009688"/>
    </g>
  </g>
</svg>
