<svg id="logo_cloe_negativo" xmlns="http://www.w3.org/2000/svg" width="114.278" height="32" viewBox="0 0 114.278 32">
  <path id="Trazado_1309" data-name="Trazado 1309" d="M1325.211,772.731a15.921,15.921,0,1,0,15.922,15.921A15.92,15.92,0,0,0,1325.211,772.731Zm0,26.007a10.084,10.084,0,1,1,10.086-10.086A10.085,10.085,0,0,1,1325.211,798.738Z" transform="translate(-1253.546 -772.731)" fill="#fff"/>
  <path id="Trazado_1310" data-name="Trazado 1310" d="M1180.406,840.279a15.926,15.926,0,0,1-25.376-5.669h6.7a10.078,10.078,0,0,0,14.542,1.533Z" transform="translate(-1154.281 -812.549)" fill="#fff"/>
  <path id="Trazado_1311" data-name="Trazado 1311" d="M1180.182,777.971l-4.135,4.135a10.086,10.086,0,0,0-16.977,2.663h-6.139a15.924,15.924,0,0,1,27.252-6.8Z" transform="translate(-1152.93 -772.73)" fill="#fff"/>
  <path id="Trazado_1312" data-name="Trazado 1312" d="M1415.5,853.193H1434.2v-5.15h-21.763Z" transform="translate(-1319.919 -821.193)" fill="#fff"/>
  <path id="Trazado_1313" data-name="Trazado 1313" d="M1415.274,818.889h17.3v-5.15h-20.135Z" transform="translate(-1319.919 -799.119)" fill="#fff"/>
  <path id="Trazado_1314" data-name="Trazado 1314" d="M1415.5,781.715H1434.2v-5.15h-21.763Z" transform="translate(-1319.919 -775.198)" fill="#fff"/>
  <rect id="Rect치ngulo_10746" data-name="Rect치ngulo 10746" width="5.766" height="22.553" transform="translate(31.041 0.763)" fill="#fff"/>
  <rect id="Rect치ngulo_10747" data-name="Rect치ngulo 10747" width="5.395" height="20.042" transform="translate(51.083 26.478) rotate(90)" fill="#fff"/>
</svg>
